<svg width="1920" height="593" viewBox="0 0 1920 593" fill="none" xmlns="http://www.w3.org/2000/svg">
<g opacity="0.04">
<path d="M-96.8457 510.122C-64.4528 508.325 14.0524 506.632 68.9299 514.227C137.527 523.721 203.265 525.261 228.417 525.261C253.57 525.261 322.738 522.952 428.491 576.324C534.245 629.697 619.991 518.846 877.229 538.348C1134.47 557.849 1444.87 549.125 1580.92 523.978C1716.97 498.831 1798.71 481.126 1875.88 463.164C1953.05 445.202 2053.66 432.372 2096.54 451.617" stroke="white" stroke-width="4"/>
<path d="M-125.426 483.435C-95.7005 480.185 -21.616 475.07 36.9199 480.613C110.09 487.541 126.667 483.435 185.546 483.435C244.425 483.435 288.442 487.797 349.035 520.129C409.629 552.461 407.343 575.042 518.812 575.042C550.253 575.042 631.425 595.826 683.445 575.042C701.928 569.396 745.182 557.541 770.334 555.283C801.774 552.461 912.101 548.355 972.123 538.348C1032.15 528.34 1388.28 558.876 1581.49 516.537C1774.71 474.198 1790.71 472.145 1855.31 457.775C1919.9 443.406 2010.79 425.187 2095.97 463.42" stroke="white" stroke-width="4"/>
<path d="M-99.1309 447.511C-64.4514 444.603 14.7398 438.068 54.0686 435.194C103.23 431.602 221.559 414.666 303.875 454.953C386.191 495.239 455.36 529.11 510.809 542.71C566.258 556.31 634.855 545.276 676.013 564.264C717.171 583.253 859.509 614.045 962.404 530.136C1065.3 446.228 1347.69 554.77 1592.92 499.601C1838.16 444.432 2096.54 513.201 2096.54 414.41" stroke="white" stroke-width="4"/>
<path d="M-98.5605 406.241C-54.14 400.608 43.3944 386.937 78.1682 377.311C121.636 365.278 232.591 332.507 307.515 382.687C382.439 432.866 453.359 466.917 526.567 513C599.776 559.083 726.174 460.516 1011 495.079C1295.82 529.641 1533.75 500.455 1626.98 473.829C1720.2 447.203 1804.28 436.451 1868.33 423.65C1932.39 410.849 1987.87 430.05 2096.54 381.407" stroke="white" stroke-width="4"/>
<path d="M-108.277 357.958C-44.8253 336.404 94.3118 289.138 143.244 272.51C204.41 251.725 293.586 241.718 364.469 320.751C435.352 399.784 489.658 426.727 535.961 471.632C582.264 516.537 736.035 567.6 941.254 500.371C1146.47 433.142 1378.56 513.971 1600.93 448.794C1823.29 383.618 1990.78 326.396 2095.39 326.396" stroke="white" stroke-width="4"/>
<path d="M-130 289.958C-119.139 289.274 -86.0981 280.926 -40.8242 253.008C15.7682 218.11 178.686 114.187 282.724 173.718C386.762 233.25 404.483 258.91 438.782 293.807C473.08 328.705 587.98 438.53 637.141 467.269C686.302 496.008 1005.85 685.379 1570.06 439.043C1651.8 406.455 1951.34 293.807 2094.25 293.807" stroke="white" stroke-width="4"/>
<path d="M-120.283 183.725C-105.992 180.133 4.33429 77.7495 152.961 77.4929C301.587 77.2363 368.469 144.979 411.342 183.725C454.215 222.472 595.41 378.742 708.595 440.326C821.779 501.91 1279.09 458.801 1407.71 424.16C1536.33 389.519 1498.6 434.937 1616.93 391.059C1735.26 347.18 1800.43 304.328 1937.62 276.358C2059.95 250.185 2095.39 263.528 2095.39 233.249" stroke="white" stroke-width="4"/>
<path d="M299.302 47.7275C334.743 65.9462 412.829 111.262 441.64 146.775C477.653 191.167 633.711 370.274 729.747 411.33C825.782 452.386 1132.75 451.36 1236.22 434.681C1339.69 418.002 1604.93 383.104 1638.65 362.833C1672.38 342.561 1795.28 293.551 1855.88 271.226C1904.35 253.367 2057.86 218.623 2128.55 203.484" stroke="white" stroke-width="4"/>
<path d="M392.479 46.7012C428.112 77.4932 507.265 148.623 538.819 186.805C578.262 234.533 672.011 351.029 849.791 409.534C1027.57 468.039 1307.67 411.587 1391.71 389.519C1475.74 367.452 1520.9 376.433 1598.07 336.66C1675.24 296.887 1727.83 246.08 1881.03 208.359C2034.23 170.639 2049.09 141.387 2123.98 162.171" stroke="white" stroke-width="4"/>
<path d="M459.361 47.2148C477.463 66.802 521.899 114.855 554.825 150.368C595.983 194.76 709.74 324.087 904.097 393.625C1098.45 463.164 1249.37 386.697 1311.1 372.327C1372.84 357.958 1540.9 360.011 1635.22 285.853C1729.55 211.696 1863.31 171.153 1974.78 151.395C2086.25 131.636 2139.98 114.957 2188 141.644" stroke="white" stroke-width="4"/>
<path d="M506.235 42.3394C543.201 89.6394 620.449 188.191 633.711 203.998C650.289 223.756 723.458 267.634 846.361 325.626C969.264 383.618 1096.17 419.798 1232.79 366.939C1369.41 314.079 1490.03 338.456 1540.33 307.151C1590.64 275.846 1710.68 206.82 1783.28 176.541C1855.88 146.262 1982.21 85.4482 2130.26 96.9952" stroke="white" stroke-width="4"/>
<path d="M555.396 48.2407C556.729 64.0644 583.863 116.291 681.728 198.609C804.059 301.505 931.535 332.554 985.269 347.95C1039 363.346 1111.03 372.84 1283.09 329.218C1455.16 285.596 1480.31 310.23 1527.18 284.57C1574.06 258.91 1641.51 197.069 1790.14 134.202C1938.76 71.3348 1976.49 115.727 2070.81 52.8595" stroke="white" stroke-width="4"/>
<path d="M587.979 42.3394C593.696 56.88 617.59 95.5069 667.437 133.689C729.746 181.417 817.207 247.876 866.368 273.536C915.529 299.196 1009.85 365.399 1165.34 316.132C1320.82 266.865 1455.16 289.189 1626.65 178.081C1798.14 66.973 1885.03 67.7428 1993.64 48.7544" stroke="white" stroke-width="4"/>
<path d="M638.283 42.8523C666.294 70.7362 732.375 134.715 772.619 167.56C822.923 208.616 970.978 314.079 1048.72 306.637C1126.46 299.196 1177.34 294.064 1291.67 267.378C1406 240.691 1531.76 196.556 1575.2 158.322C1618.65 120.089 1710.68 52.6031 1838.16 35.6675" stroke="white" stroke-width="4"/>
<path d="M685.158 39.7731C696.4 60.8999 743.923 113.007 844.074 152.421C969.263 201.688 952.686 294.064 1189.92 233.25C1427.15 172.436 1398.56 234.533 1520.32 132.662C1642.08 30.7921 1652.94 52.8598 1744.98 19.2451" stroke="white" stroke-width="4"/>
<path d="M749.182 42.3383C765.378 68.0839 831.841 127.119 968.12 157.295C1138.47 195.016 1243.08 226.321 1371.13 148.827C1499.17 71.3341 1563.77 22.0669 1672.38 15.1387" stroke="white" stroke-width="4"/>
<path d="M796.057 32.332C802.916 36.181 797.772 114.701 1076.73 127.787C1355.69 140.874 1307.67 139.334 1463.16 32.332" stroke="white" stroke-width="4"/>
<path d="M840.645 44.9051C933.822 83.4807 1147.84 151.754 1258.51 116.24C1396.85 71.8482 1365.98 57.9917 1392.85 20.2715" stroke="white" stroke-width="4"/>
<path d="M925.819 0C921.817 27.7128 950.285 82.728 1096.17 81.0857C1278.52 79.0329 1183.06 159.349 1293.95 40.2863" stroke="white" stroke-width="4"/>
</g>
</svg>
