<svg width="449" height="735" viewBox="0 0 449 735" fill="none" xmlns="http://www.w3.org/2000/svg">
<path opacity="0.2" d="M552 413.349L497.052 458.204L503.839 483.951L538.902 441.461L511.072 511.289L536.592 551.498L500.584 540.899L498.063 548.019L510.122 627.611L510.296 627.728L510.155 627.845L510.372 629.277L509.821 628.122L456.924 671.997L457.554 672.673L456.863 672.359L460.033 699.283L401.294 686.15L381.47 735L381.216 734.714L265.521 603.108L222.694 564.383L199.577 572.438L199.502 572.212L185.105 530.389L184.72 530.037L184.941 530.037L167.91 494.982L202.131 529.492L266.382 527.474L266.499 527.366L266.584 527.464L266.612 527.464L266.669 527.568L384.537 665.994L419.858 649.903L421.979 647.354L354.224 562.519L353.919 562.697L354.022 562.28L353.665 561.895L353.735 561.904L352.827 560.773L354.14 561.806L384.259 439.316L384.348 439.663L418.851 378.852L420.841 333.616L420.808 333.654L420.864 332.992L420.827 332.903L420.874 332.856L420.893 332.372L420.916 332.396L424.025 295.942L426.264 258.235L399.084 239.694L354.648 221.411L264.703 224.101L264.566 224.608L264.472 224.378L264.294 224.65L264.294 224.115L263.555 224.138L264.228 223.767L244.004 173.898L193.566 189.431L155.607 258.864L156.133 259.071L155.672 259.156L156.185 259.892L155.353 259.329L154.906 260.151L155.005 259.278L85.1003 271.862L76.4793 238.511L32.4382 287.446L32.0713 287.155L73.6291 227.321L76.9026 205.625L94.6338 217.637L112.346 197.955L-2.5291e-05 156.409L0.55966 156.179L150.847 94.9924L185.138 76.2728L283.281 0.582019L283.224 0.370776L283.488 0.422412L284.033 -1.24155e-05L283.859 0.497546L329.415 9.54753L329.546 9.09227L329.753 9.61797L330.035 9.6743L329.857 9.87138L348.199 55.9007L414.872 6.3275L407.695 47.3107L420.295 92.4435L397.32 100.508L472.859 227.645L473.075 227.537L473.014 227.908L473.922 229.438L472.925 228.443L467.779 260.47L469.91 261.216L470.62 260.681L467.916 266.009L485.572 272.632L485.769 272.261L485.882 272.745L486.277 272.89L485.957 273.045L494.009 307.142L494.042 307.105L494.193 307.912L494.169 307.912L507.126 391.141L529.547 389.508L507.498 427.027L552 413.344L552 413.349ZM496.92 457.702L549.841 414.499L507.225 427.604L507.225 427.75L507.098 427.712L507.032 427.825L506.99 427.778L492.998 442.817L496.92 457.702ZM510.851 510.566L537.349 444.075L503.985 484.51L510.851 510.566ZM500.739 540.457L535.525 550.695L510.866 511.847L500.739 540.457ZM507.221 426.572L528.681 390.043L507.155 391.611L507.221 426.567L507.221 426.572ZM496.648 538.702L510.475 511.439L488.789 503.164L487.034 577.113L496.243 539.617L496.187 539.598L496.304 539.373L496.582 538.246L496.648 538.692L496.648 538.702ZM488.953 502.727L510.461 510.932L503.613 484.955L488.953 502.722L488.953 502.727ZM457.056 671.274L509.511 627.77L478.093 606.633L457.056 671.274ZM487.006 579.258L509.436 626.221L497.729 548.963L487.006 579.258ZM500.288 540.326L509.375 514.664L496.869 539.321L500.293 540.331L500.288 540.326ZM478.244 606.169L509.323 627.076L486.794 579.906L478.249 606.173L478.244 606.169ZM477.275 394.394L506.75 426.82L506.684 391.648L477.27 394.39L477.275 394.394ZM476.88 393.958L506.651 391.179L493.736 308.212L448.693 362.944L476.88 393.953L476.88 393.958ZM492.692 442.451L506.562 427.539L425.431 402.182L425.248 403.486L492.692 442.451ZM425.497 401.712L506.233 426.942L476.692 394.441L425.85 399.182L425.497 401.707L425.497 401.712ZM488.426 502.624L503.472 484.392L496.652 458.524L408.359 530.595L488.426 502.624ZM497.913 547.029L500.133 540.762L496.817 539.786L497.913 547.029ZM488.107 574.728L497.579 547.968L496.474 540.664L488.107 574.728ZM410.113 528.558L496.516 458.026L492.612 443.212L410.113 528.558ZM468.311 306.034L493.586 307.41L485.6 273.58L468.311 306.034ZM448.374 362.597L493.412 307.87L468.071 306.494L441.949 355.528L448.374 362.597ZM407.507 530.576L492.358 442.799L425.177 403.989L407.507 530.576ZM486.522 578.854L488.318 503.159L407.719 531.318L486.517 578.854L486.522 578.854ZM473.179 603.052L486.371 579.45L355.09 562.552L438.163 627.906L438.544 627.451L438.44 628.202L445.166 644.204L473.179 603.052ZM477.835 605.892L485.778 581.478L473.686 603.103L477.83 605.892L477.835 605.892ZM354.991 562.068L485.67 578.892L407.211 531.557L406.839 531.942L406.872 531.708L354.991 562.068ZM467.793 306.011L485.139 273.453L464.045 283.733L463.998 284.034L463.871 283.921L448.242 304.95L467.798 306.011L467.793 306.011ZM464.134 283.165L485.092 272.956L467.704 266.436L466.415 268.975L464.134 283.165ZM458.293 665.947L477.684 606.361L473.527 603.563L458.293 665.947ZM425.916 398.713L476.297 394.014L448.392 363.315L427.275 388.973L425.916 398.708L425.916 398.713ZM456.52 671.223L472.845 604.385L445.387 644.72L456.52 671.223ZM467.328 260.315L472.459 228.372L432.778 248.233L467.328 260.315ZM432.157 248.017L472.365 227.894L359.276 115.101L424.401 245.304L432.157 248.017ZM358.848 114.017L471.603 226.476L396.859 100.672L358.848 114.017ZM467.346 263.15L469.411 261.592L467.666 261.16L467.346 263.15ZM467.469 265.844L469.275 262.282L467.234 263.821L466.942 265.647L467.469 265.844ZM441.606 355.162L467.544 306.466L447.95 305.401L434.725 347.595L441.601 355.162L441.606 355.162ZM466.65 267.45L467.252 266.262L466.867 266.117L466.655 267.445L466.65 267.45ZM466.801 263.558L467.205 261.047L430.751 252.072L465 264.915L466.801 263.554L466.801 263.558ZM466.49 265.478L466.693 264.23L465.522 265.117L466.495 265.483L466.49 265.478ZM465.954 268.825L466.415 265.952L465.075 265.45L453.542 274.153L460.24 280.086L465.954 268.825ZM463.659 283.114L465.71 270.346L460.602 280.41L463.659 283.114ZM427.604 250.819L465.207 260.076L432.185 248.528L427.604 250.819ZM453.18 273.834L464.553 265.253L428.032 251.556L453.18 273.834ZM452.592 296.186L463.466 283.616L460.122 281.335L452.588 296.186L452.592 296.186ZM460.343 280.912L460.884 281.278L460.381 280.832L460.343 280.907L460.343 280.912ZM459.953 280.645L460.019 280.513L453.157 274.434L452.061 275.261L459.953 280.645ZM449.239 302.796L459.854 288.512L451.713 297.923L449.239 302.796ZM451.318 297.656L459.737 281.067L451.666 275.561L424.73 295.886L445.74 304.105L451.318 297.656ZM402.169 685.863L459.487 698.683L456.397 672.434L456.106 672.678L456.223 672.312L402.164 685.873L402.169 685.863ZM402.23 685.366L455.875 671.908L433.827 661.914L433.794 662.144L433.591 661.896L402.225 685.361L402.23 685.366ZM439.532 653.334L455.857 670.847L445.077 645.19L439.532 653.334ZM433.986 661.478L455.612 671.279L439.259 653.733L433.986 661.478ZM451.666 274.993L452.813 274.129L427.148 251.396L426.758 258.001L451.671 274.993L451.666 274.993ZM424.533 295.468L451.271 275.293L426.725 258.55L424.533 295.473L424.533 295.468ZM447.682 304.87L450.457 299.407L446.224 304.298L447.687 304.87L447.682 304.87ZM427.407 388.095L448.077 362.977L441.719 355.983L428.394 380.993L427.402 388.095L427.407 388.095ZM427.228 326.251L447.381 305.26L445.895 304.678L427.228 326.251ZM434.377 347.201L447.273 306.053L421.433 332.964L434.377 347.201ZM421.41 332.26L445.434 304.495L424.481 296.299L421.415 332.26L421.41 332.26ZM439.207 652.986L444.86 644.678L438.328 629.127L435.59 649.105L439.207 652.986ZM428.587 379.636L441.385 355.612L434.579 348.125L431.705 357.298L428.587 379.636ZM434.01 660.624L438.934 653.385L435.506 649.705L434.01 660.619L434.01 660.624ZM427.637 640.576L437.876 628.282L356.538 564.293L427.637 640.576ZM435.176 648.663L437.867 629.028L427.962 640.923L435.176 648.663ZM433.483 661.009L435.092 649.264L427.656 641.289L422.591 647.372L433.483 661.009ZM431.489 356.424L434.217 347.727L421.89 334.166L431.489 356.424ZM401.854 685.075L433.267 661.572L420.084 650.475L401.854 685.075ZM420.342 650.076L431.978 659.873L422.289 647.739L420.342 650.076ZM427.054 250.589L431.588 248.322L424.716 245.918L427.054 250.589ZM419.373 377.965L431.249 357.039L421.311 333.997L419.373 377.965ZM427.952 380.847L430.859 360.034L419.167 397.347L427.957 380.847L427.952 380.847ZM418.499 397.891L430.633 359.081L419.331 378.998L418.499 397.891ZM426.842 388.794L427.764 382.204L419.5 397.722L426.847 388.799L426.842 388.794ZM422.299 646.997L427.341 640.942L358.321 566.889L422.299 646.997ZM425.45 398.769L426.72 389.681L418.724 399.398L425.45 398.769ZM426.315 257.696L426.711 251.058L401.205 240.563L426.32 257.696L426.315 257.696ZM411.693 241.361L426.377 250.279L424.081 245.693L411.693 241.361ZM425.055 401.585L425.38 399.248L419.369 399.811L425.055 401.59L425.055 401.585ZM424.825 403.247L424.989 402.055L420.131 400.539L424.82 403.247L424.825 403.247ZM408.133 522.827L424.754 403.749L418.386 400.069L408.133 522.827ZM399.324 239.281L424.255 249.538L409.563 240.61L392.56 234.662L399.324 239.276L399.324 239.281ZM409.76 240.187L423.78 245.092L358.457 114.491L326.804 189.802L409.76 240.187ZM397.085 100.109L419.736 92.1572L407.371 47.86L384.499 78.9248L397.085 100.109ZM401.116 685.469L419.482 650.607L384.861 666.383L401.116 685.474L401.116 685.469ZM417.958 399.37L418.814 379.899L385.764 438.147L417.817 399.75L416.227 398.83L417.958 399.37ZM407.07 529.849L417.883 400.407L384.532 440.363L407.07 529.854L407.07 529.849ZM407.263 47.1277L414.214 7.42119L348.994 55.9101L407.263 47.1277ZM391.06 233.648L407.625 239.441L333.982 194.712L391.06 233.648ZM384.236 78.4883L406.938 47.6487L349.281 56.3373L374.97 62.8948L375.022 62.9793L384.236 78.4836L384.236 78.4883ZM354.652 561.745L406.915 531.163L384.273 441.278L354.648 561.749L354.652 561.745ZM381.324 734.118L400.763 686.22L400.076 686.394L400.528 686.056L352.498 681.329L353.063 682.343L351.967 681.277L351.181 681.197L351.652 680.981L268.574 605.863L381.324 734.118ZM352.968 680.897L400.311 685.558L378.056 669.467L352.968 680.897ZM378.549 669.242L399.709 684.54L384.41 666.571L378.549 669.242ZM362.845 224.27L397.217 238.408L390.839 234.057L362.845 224.265L362.845 224.27ZM359.069 113.444L396.624 100.259L384.189 79.3238L359.069 113.444ZM354.831 220.97L389.343 233.038L327.985 191.182L354.831 220.97ZM378.112 668.923L384.095 666.2L267.845 529.68L323.564 629.488L378.112 668.927L378.112 668.923ZM359.092 112.614L383.925 78.8826L374.876 63.6553L359.092 112.614ZM352.174 680.737L377.613 669.148L324.1 630.455L352.169 680.737L352.174 680.737ZM356.392 110.764L374.5 63.2516L348.181 56.5345L331.465 76.9534L356.392 110.769L356.392 110.764ZM358.34 113.407L371.824 71.5928L356.726 111.215L358.344 113.407L358.34 113.407ZM357.992 113.82L358.043 113.801L356.524 111.741L355.052 115.604L358.039 113.867L357.992 113.82ZM331.668 176.973L357.935 114.472L354.789 116.298L331.668 176.968L331.668 176.973ZM354.408 115.979L356.195 111.29L331.324 77.5495L323.46 133.948L354.408 115.979ZM265.493 223.608L354.182 220.956L326.447 190.187L265.493 223.613L265.493 223.608ZM326.663 188.783L354.14 116.679L323.399 134.525L326.663 188.783ZM246.868 574.616L351.031 679.658L323.197 629.803L246.868 574.616ZM346.911 56.2106L347.762 56.0838L329.622 10.552L307.338 88.9841L307.658 88.8057L307.625 88.8526L331.014 76.7562L347.673 56.403L346.906 56.2059L346.911 56.2106ZM265.86 602.775L342.72 672.269L233.652 566.133L265.86 602.77L265.86 602.775ZM231.964 563.838L333.37 662.515L244.531 572.921L231.964 563.833L231.964 563.838ZM323.056 133.417L330.873 77.3617L307.248 89.5802L323.056 133.422L323.056 133.417ZM295.913 46.6583L329.132 9.97002L283.873 0.981006L295.918 46.6583L295.913 46.6583ZM306.966 88.571L329.085 10.7258L296.059 47.2028L306.966 88.5757L306.966 88.571ZM303.034 165.529L326.221 189.267L322.967 135.112L303.034 165.529ZM265.234 223.209L326.108 189.825L302.766 165.928L265.23 223.204L265.234 223.209ZM285.242 147.316L322.854 134.248L306.896 89.9933L264.947 155.568L263.071 156.46L264.021 157.235L264.251 157.047L264.251 157.169L284.978 147.424L285.058 147.133L285.242 147.321L285.242 147.316ZM244.836 572.564L322.656 628.831L266.41 528.079L232.081 559.698L244.841 572.564L244.836 572.564ZM302.696 165.182L322.581 134.835L285.604 147.682L302.696 165.182ZM249.163 98.987L306.66 89.2704L295.678 47.6111L249.163 98.987ZM264.623 155.198L306.251 90.1153L232.227 131.319L262.662 156.122L264.618 155.193L264.623 155.198ZM232.387 130.695L305.541 89.9745L247.738 101.357L232.387 130.695ZM265.131 222.5L302.427 165.585L285.294 148.044L265.131 222.505L265.131 222.5ZM249.149 98.3016L295.533 47.0713L283.511 1.46923L249.149 98.3016ZM248.016 100.827L289.893 92.5796L248.688 99.5408L248.016 100.827ZM264.74 222.143L284.819 148.006L264.261 157.676L264.745 222.139L264.74 222.143ZM248.392 99.0292L283.055 1.34716L185.745 76.3948L248.392 99.0292ZM231.747 559.36L265.846 527.953L202.578 529.943L231.747 559.36ZM244.587 174.096L264.275 222.636L263.79 158.019L244.502 173.603L245.796 174.71L244.592 174.096L244.587 174.096ZM244.258 173.194L263.645 157.531L262.596 156.676L242.254 166.318L244.258 173.194ZM223.197 564.2L262.803 600.01L229.414 562.031L223.197 564.2ZM242.123 165.862L262.196 156.348L232.25 131.944L242.127 165.862L242.123 165.862ZM247.423 100.94L248.077 99.6864L230.741 104.225L247.418 100.94L247.423 100.94ZM223.267 105.695L247.743 99.2873L185.34 76.7374L155.484 114.529L223.267 105.69L223.267 105.695ZM231.86 130.681L247.146 101.47L223.62 106.103L231.86 130.681ZM238.219 168.228L243.689 172.903L241.831 166.52L238.224 168.228L238.219 168.228ZM196.44 188.037L243.51 173.542L235.566 169.491L196.44 188.041L196.44 188.037ZM229.993 561.824L242.494 570.865L231.728 560.008L229.861 561.726L229.998 561.82L229.993 561.824ZM236.098 169.233L242.471 172.481L237.753 168.449L236.102 169.233L236.098 169.233ZM237.824 167.895L241.69 166.059L231.625 131.484L186.432 123.959L237.824 167.895ZM235.571 168.965L237.363 168.115L185.627 123.889L169.495 135.262L235.571 168.965ZM193.51 188.905L235.035 169.219L169.528 135.802L193.515 188.905L193.51 188.905ZM185.688 123.363L231.46 130.986L223.145 106.183L156.091 114.928L185.684 123.363L185.688 123.363ZM229.466 561.449L231.395 559.675L201.929 529.957L186.004 530.459L229.471 561.449L229.466 561.449ZM222.797 563.833L228.982 561.679L188.468 532.792L222.802 563.833L222.797 563.833ZM199.864 571.827L222.294 564.012L185.82 531.036L199.864 571.832L199.864 571.827ZM185.444 530.008L201.477 529.506L169.561 497.319L185.444 530.008ZM155.625 257.813L193.129 189.21L169.175 136.173L155.625 257.813ZM169.331 134.802L185.101 123.687L155.503 115.252L169.063 134.919L169.354 134.596L169.331 134.802ZM155.066 114.299L184.357 77.2209L151.2 95.321L155.061 114.299L155.066 114.299ZM155.094 258.325L168.724 135.999L113.042 197.861L155.099 258.329L155.094 258.325ZM168.583 135.328L168.714 135.234L154.967 115.299L113.757 196.355L168.658 135.361L168.583 135.323L168.583 135.328ZM154.393 115.148L154.642 114.829L154.37 114.435L154.628 114.51L150.87 96.0485L114.397 194.059L154.525 115.13L154.393 115.148ZM85.4343 271.304L154.398 258.888L83.0262 231.207L76.8462 238.075L85.439 271.304L85.4343 271.304ZM95.0148 217.881L154.346 258.066L112.718 198.213L95.0148 217.881ZM83.3601 230.832L153.41 258.001L94.6996 218.233L83.3601 230.832ZM112.6 197.533L150.527 95.612L1.29807 156.39L112.614 197.552L112.6 197.533ZM82.8898 230.649L94.3046 217.966L77.2412 206.409L74.0948 227.236L82.8898 230.649ZM76.7004 237.526L82.5559 231.02L74.1794 227.771L76.7004 237.526ZM34.5688 284.339L76.3241 237.943L73.7373 227.94L34.5688 284.334L34.5688 284.339Z" fill="url(#paint0_linear_1_4094)"/>
<defs>
<linearGradient id="paint0_linear_1_4094" x1="276" y1="735" x2="276" y2="-2.3744e-05" gradientUnits="userSpaceOnUse">
<stop stop-color="#926EFB"/>
<stop offset="1" stop-color="#465BD7"/>
<stop offset="1" stop-color="#4A56AB"/>
</linearGradient>
</defs>
</svg>
