<svg width="640" height="979" viewBox="0 0 640 979" fill="none" xmlns="http://www.w3.org/2000/svg">
<path opacity="0.15" d="M735 550.569L661.836 610.316L670.872 644.61L717.559 588.014L680.504 681.023L714.484 734.58L666.539 720.462L663.182 729.947L679.239 835.96L679.471 836.117L679.283 836.273L679.571 838.18L678.838 836.642L608.404 895.082L609.244 895.982L608.323 895.563L612.544 931.426L534.332 913.933L507.936 979L507.598 978.619L353.547 803.324L296.521 751.742L265.741 762.471L265.641 762.171L246.472 706.463L245.958 705.994L246.253 705.994L223.576 659.302L269.142 705.269L354.693 702.581L354.85 702.437L354.963 702.568L355 702.568L355.075 702.706L512.019 887.085L559.05 865.652L561.874 862.257L471.657 749.26L471.25 749.498L471.388 748.941L470.912 748.429L471.006 748.441L469.797 746.934L471.545 748.31L511.649 585.157L511.768 585.619L557.71 504.621L560.359 444.368L560.315 444.418L560.39 443.536L560.34 443.418L560.403 443.355L560.428 442.711L560.459 442.742L564.598 394.187L567.579 343.963L531.389 319.266L472.221 294.914L352.458 298.496L352.276 299.171L352.151 298.865L351.913 299.228L351.913 298.515L350.93 298.546L351.825 298.052L324.896 231.628L257.738 252.317L207.194 344.8L207.895 345.076L207.281 345.188L207.964 346.17L206.855 345.419L206.26 346.514L206.392 345.351L113.313 362.113L101.834 317.691L43.1922 382.871L42.7037 382.483L98.0388 302.785L102.397 273.887L126.007 289.887L149.591 263.671L-3.3687e-05 208.332L0.745199 208.026L200.856 126.527L246.516 101.593L377.194 0.775313L377.119 0.49388L377.47 0.562667L378.196 4.45037e-05L377.965 0.662703L438.623 12.7171L438.798 12.1107L439.074 12.8109L439.449 12.886L439.211 13.1485L463.635 74.4584L552.412 8.42808L542.855 63.0166L559.632 123.132L529.04 133.874L629.622 303.217L629.91 303.073L629.828 303.567L631.037 305.605L629.709 304.279L622.858 346.939L625.695 347.933L626.641 347.22L623.04 354.316L646.549 363.138L646.812 362.644L646.962 363.288L647.488 363.482L647.063 363.689L657.784 409.105L657.828 409.055L658.028 410.13L657.997 410.13L675.25 520.99L705.103 518.814L675.745 568.788L735 550.563L735 550.569ZM661.66 609.647L732.126 552.101L675.381 569.557L675.381 569.751L675.212 569.701L675.125 569.851L675.068 569.789L656.437 589.821L661.66 609.647ZM680.21 680.06L715.492 591.496L671.067 645.354L680.21 680.06ZM666.746 719.874L713.063 733.511L680.229 681.767L666.746 719.874ZM675.375 568.182L703.951 519.527L675.288 521.615L675.375 568.175L675.375 568.182ZM661.297 717.536L679.709 681.223L650.833 670.2L648.497 768.698L660.759 718.755L660.683 718.73L660.84 718.43L661.209 716.93L661.297 717.524L661.297 717.536ZM651.052 669.619L679.69 680.548L670.572 645.948L651.052 669.612L651.052 669.619ZM608.58 894.119L678.425 836.173L636.592 808.019L608.58 894.119ZM648.459 771.556L678.325 834.11L662.738 731.204L648.459 771.556ZM666.144 719.699L678.243 685.518L661.591 718.361L666.151 719.706L666.144 719.699ZM636.792 807.4L678.174 835.248L648.177 772.419L636.798 807.406L636.792 807.4ZM635.502 525.322L674.749 568.513L674.661 521.665L635.496 525.316L635.502 525.322ZM634.976 524.741L674.617 521.04L657.421 410.531L597.445 483.432L634.976 524.735L634.976 524.741ZM656.03 589.333L674.498 569.47L566.471 535.695L566.227 537.433L656.03 589.333ZM566.559 535.07L674.06 568.676L634.726 525.385L567.028 531.7L566.559 535.063L566.559 535.07ZM650.35 669.481L670.384 645.197L661.303 610.741L543.738 706.738L650.35 669.481ZM662.982 728.628L665.938 720.281L661.523 718.98L662.982 728.628ZM649.925 765.522L662.537 729.878L661.065 720.15L649.925 765.522ZM546.074 704.025L661.122 610.078L655.924 590.346L546.074 704.025ZM623.566 407.63L657.22 409.461L646.587 364.401L623.566 407.63ZM597.019 482.969L656.989 410.074L623.246 408.242L588.465 473.554L597.019 482.969ZM542.605 706.713L655.586 589.796L566.133 538.102L542.605 706.713ZM647.814 771.018L650.206 670.194L542.887 707.701L647.808 771.018L647.814 771.018ZM630.047 803.249L647.614 771.812L472.81 749.304L583.423 836.354L583.931 835.748L583.793 836.748L592.748 858.062L630.047 803.249ZM636.247 807.031L646.825 774.513L630.724 803.317L636.241 807.031L636.247 807.031ZM472.678 748.66L646.681 771.068L542.21 708.02L541.715 708.533L541.759 708.22L472.678 748.66ZM622.877 407.598L645.973 364.233L617.886 377.925L617.823 378.325L617.654 378.175L596.844 406.185L622.883 407.598L622.877 407.598ZM618.005 377.168L645.91 363.57L622.758 354.885L621.042 358.268L618.005 377.168ZM610.227 887.023L636.047 807.656L630.511 803.93L610.227 887.023ZM567.116 531.074L634.199 524.816L597.044 483.926L568.926 518.101L567.116 531.068L567.116 531.074ZM607.866 894.05L629.603 805.024L593.043 858.75L607.866 894.05ZM622.257 346.732L629.089 304.186L576.253 330.639L622.257 346.732ZM575.426 330.351L628.964 303.548L478.383 153.312L565.099 326.738L575.426 330.351ZM477.813 151.868L627.949 301.66L528.426 134.093L477.813 151.868ZM622.282 350.509L625.031 348.433L622.708 347.858L622.282 350.509ZM622.445 354.098L624.85 349.352L622.132 351.403L621.743 353.835L622.445 354.098ZM588.008 473.066L622.545 408.205L596.456 406.785L578.846 462.987L588.001 473.066L588.008 473.066ZM621.355 356.236L622.157 354.654L621.643 354.46L621.361 356.23L621.355 356.236ZM621.556 351.053L622.094 347.708L573.554 335.753L619.157 352.86L621.556 351.046L621.556 351.053ZM621.142 353.61L621.412 351.947L619.852 353.128L621.148 353.616L621.142 353.61ZM620.428 358.068L621.042 354.241L619.257 353.572L603.902 365.164L612.819 373.067L620.428 358.068ZM617.372 377.1L620.103 360.093L613.302 373.498L617.372 377.1ZM569.364 334.084L619.433 346.414L575.464 331.033L569.364 334.084ZM603.419 364.739L618.562 353.31L569.934 335.066L603.419 364.739ZM602.637 394.512L617.115 377.769L612.663 374.73L602.63 394.512L602.637 394.512ZM612.957 374.167L613.677 374.655L613.007 374.061L612.957 374.161L612.957 374.167ZM612.437 373.811L612.525 373.636L603.388 365.539L601.929 366.64L612.437 373.811ZM598.171 403.315L612.306 384.29L601.466 396.826L598.171 403.315ZM600.94 396.469L612.149 374.374L601.403 367.04L565.538 394.112L593.512 405.06L600.94 396.469ZM535.497 913.551L611.817 930.626L607.703 895.663L607.315 895.989L607.471 895.501L535.491 913.564L535.497 913.551ZM535.578 912.888L607.008 894.963L577.649 881.652L577.606 881.958L577.336 881.627L535.572 912.882L535.578 912.888ZM585.246 870.223L606.983 893.55L592.629 859.375L585.246 870.223ZM577.862 881.071L606.657 894.125L584.883 870.754L577.862 881.071ZM601.403 366.283L602.931 365.133L568.757 334.853L568.237 343.65L601.409 366.283L601.403 366.283ZM565.275 393.556L600.877 366.683L568.193 344.382L565.275 393.562L565.275 393.556ZM596.099 406.079L599.793 398.801L594.157 405.316L596.105 406.079L596.099 406.079ZM569.101 516.932L596.625 483.476L588.158 474.16L570.416 507.472L569.095 516.932L569.101 516.932ZM568.863 434.558L595.698 406.598L593.719 405.823L568.863 434.558ZM578.382 462.462L595.554 407.655L561.148 443.499L578.382 462.462ZM561.117 442.561L593.105 405.579L565.206 394.662L561.123 442.561L561.117 442.561ZM584.814 869.76L592.341 858.694L583.643 837.98L579.998 864.59L584.814 869.76ZM570.673 505.665L587.713 473.666L578.651 463.694L574.825 475.911L570.673 505.665ZM577.894 879.933L584.45 870.292L579.885 865.39L577.894 879.926L577.894 879.933ZM569.408 853.229L583.041 836.854L474.738 751.623L569.408 853.229ZM579.447 864.002L583.029 837.849L569.84 853.692L579.447 864.002ZM577.192 880.445L579.334 864.802L569.433 854.18L562.688 862.283L577.192 880.445ZM574.537 474.748L578.169 463.162L561.755 445.099L574.537 474.748ZM535.077 912.501L576.904 881.196L559.351 866.415L535.077 912.501ZM559.695 865.884L575.188 878.932L562.288 862.77L559.695 865.884ZM568.632 333.778L574.668 330.758L565.519 327.557L568.632 333.778ZM558.405 503.439L574.218 475.567L560.985 444.874L558.405 503.439ZM569.828 507.278L573.698 479.556L558.129 529.255L569.834 507.278L569.828 507.278ZM557.24 529.98L573.397 478.287L558.349 504.815L557.24 529.98ZM568.35 517.863L569.577 509.085L558.574 529.755L568.356 517.87L568.35 517.863ZM562.3 861.782L569.013 853.717L477.112 755.081L562.3 861.782ZM566.496 531.15L568.187 519.045L557.541 531.987L566.496 531.15ZM567.648 343.244L568.174 334.403L534.213 320.423L567.655 343.244L567.648 343.244ZM548.178 321.486L567.73 333.365L564.674 327.257L548.178 321.486ZM565.97 534.901L566.402 531.787L558.399 532.538L565.97 534.907L565.97 534.901ZM565.663 537.114L565.882 535.526L559.413 533.507L565.657 537.114L565.663 537.114ZM543.438 696.391L565.569 537.783L557.09 532.881L543.438 696.391ZM531.708 318.716L564.905 332.377L545.341 320.485L522.703 312.564L531.708 318.71L531.708 318.716ZM545.604 319.923L564.273 326.456L477.293 152.499L435.147 252.811L545.604 319.923ZM528.727 133.342L558.887 122.751L542.423 63.7482L511.969 105.126L528.727 133.342ZM534.094 913.026L558.549 866.59L512.451 887.604L534.094 913.032L534.094 913.026ZM556.52 531.95L557.66 506.015L513.653 583.6L556.332 532.456L554.215 531.231L556.52 531.95ZM542.022 705.744L556.42 533.332L512.013 586.551L542.022 705.751L542.022 705.744ZM542.279 62.7728L551.535 9.8848L464.693 74.4709L542.279 62.7728ZM520.705 311.213L542.761 318.929L444.704 259.351L520.705 311.213ZM511.618 104.544L541.847 63.4668L465.075 75.0398L499.281 83.7743L499.35 83.8868L511.618 104.538L511.618 104.544ZM472.227 748.228L541.816 707.495L511.668 587.77L472.221 748.235L472.227 748.228ZM507.742 977.825L533.624 914.026L532.71 914.258L533.311 913.808L469.359 907.511L470.11 908.862L468.651 907.443L467.605 907.336L468.232 907.049L357.612 806.994L507.742 977.825ZM469.985 906.936L533.023 913.145L503.389 891.712L469.985 906.936ZM504.047 891.412L532.222 911.788L511.85 887.854L504.047 891.412ZM483.136 298.721L528.902 317.553L520.411 311.757L483.136 298.715L483.136 298.721ZM478.108 151.105L528.113 133.542L511.555 105.657L478.108 151.105ZM472.465 294.326L518.419 310.4L436.719 254.649L472.465 294.326ZM503.464 890.987L511.43 887.36L356.641 705.519L430.832 838.461L503.464 890.993L503.464 890.987ZM478.139 149.998L511.205 105.069L499.156 84.7871L478.139 149.998ZM468.927 906.724L502.801 891.287L431.546 839.749L468.921 906.724L468.927 906.724ZM474.544 147.535L498.655 84.2494L463.61 75.3024L441.353 102.5L474.544 147.541L474.544 147.535ZM477.137 151.055L495.091 95.3597L474.989 148.135L477.143 151.055L477.137 151.055ZM476.673 151.605L476.742 151.58L474.72 148.835L472.759 153.981L476.736 151.668L476.673 151.605ZM441.622 235.723L476.598 152.474L472.409 154.906L441.622 235.717L441.622 235.723ZM471.901 154.481L474.281 148.235L441.165 103.294L430.694 178.415L471.901 154.481ZM353.51 297.84L471.601 294.307L434.671 253.323L353.51 297.846L353.51 297.84ZM434.959 251.454L471.545 155.413L430.613 179.184L434.959 251.454ZM328.71 765.372L467.405 905.286L430.344 838.88L328.71 765.372ZM461.919 74.871L463.053 74.7022L438.898 14.0551L409.227 118.524L409.653 118.287L409.609 118.349L440.752 102.237L462.934 75.1273L461.913 74.8647L461.919 74.871ZM353.998 802.88L456.339 895.445L311.113 754.074L353.998 802.873L353.998 802.88ZM308.865 751.017L443.89 882.452L325.598 763.115L308.865 751.011L308.865 751.017ZM430.156 177.708L440.564 103.044L409.108 119.318L430.156 177.715L430.156 177.708ZM394.015 62.1476L438.247 13.2798L377.983 1.30675L394.022 62.1476L394.015 62.1476ZM408.732 117.974L438.184 14.2864L394.209 62.8728L408.732 117.98L408.732 117.974ZM403.497 220.48L434.371 252.098L430.037 179.965L403.497 220.48ZM353.165 297.308L434.22 252.842L403.14 221.012L353.159 297.302L353.165 297.308ZM379.806 196.221L429.887 178.815L408.638 119.869L352.783 207.213L350.285 208.401L351.549 209.432L351.856 209.182L351.856 209.345L379.455 196.365L379.562 195.978L379.806 196.228L379.806 196.221ZM326.005 762.64L429.624 837.586L354.731 703.387L309.021 745.503L326.011 762.64L326.005 762.64ZM403.046 220.017L429.523 179.597L380.288 196.709L403.046 220.017ZM331.766 131.848L408.325 118.906L393.702 63.4168L331.766 131.848ZM352.351 206.719L407.78 120.031L309.215 174.914L349.74 207.951L352.345 206.713L352.351 206.719ZM309.428 174.082L406.835 119.844L329.869 135.005L309.428 174.082ZM353.027 296.364L402.689 220.555L379.875 197.191L353.027 296.37L353.027 296.364ZM331.748 130.935L393.508 62.6978L377.501 1.95695L331.748 130.935ZM330.238 134.299L385.999 123.314L331.134 132.586L330.238 134.299ZM352.508 295.889L379.242 197.14L351.869 210.02L352.514 295.883L352.508 295.889ZM330.739 131.904L376.894 1.79442L247.323 101.756L330.739 131.904ZM308.577 745.052L353.979 703.218L269.737 705.869L308.577 745.052ZM325.673 231.891L351.888 296.545L351.243 210.477L325.56 231.234L327.282 232.71L325.679 231.891L325.673 231.891ZM325.235 230.69L351.049 209.826L349.652 208.688L322.567 221.531L325.235 230.69ZM297.191 751.498L349.928 799.197L305.47 748.61L297.191 751.498ZM322.391 220.924L349.12 208.251L309.247 175.745L322.398 220.924L322.391 220.924ZM329.449 134.449L330.32 132.78L307.236 138.825L329.443 134.449L329.449 134.449ZM297.285 140.782L329.875 132.248L246.785 102.212L207.031 152.549L297.285 140.776L297.285 140.782ZM308.727 174.063L329.08 135.155L297.755 141.326L308.727 174.063ZM317.194 224.075L324.477 230.303L322.003 221.799L317.2 224.075L317.194 224.075ZM261.564 250.46L324.239 231.153L313.662 225.757L261.564 250.466L261.564 250.46ZM306.241 748.335L322.886 760.377L308.551 745.915L306.065 748.203L306.247 748.329L306.241 748.335ZM314.369 225.413L322.855 229.74L316.574 224.369L314.376 225.413L314.369 225.413ZM316.668 223.631L321.815 221.187L308.414 175.132L248.238 165.11L316.668 223.631ZM313.668 225.057L316.054 223.925L247.167 165.016L225.687 180.166L313.668 225.057ZM257.663 251.617L312.954 225.395L225.73 180.885L257.669 251.617L257.663 251.617ZM247.248 164.316L308.194 174.47L297.122 141.433L207.839 153.081L247.242 164.316L247.248 164.316ZM305.539 747.835L308.107 745.471L268.873 705.888L247.668 706.557L305.545 747.835L305.539 747.835ZM296.659 751.011L304.894 748.141L250.949 709.664L296.665 751.011L296.659 751.011ZM266.123 761.658L295.989 751.248L247.424 707.326L266.123 761.665L266.123 761.658ZM246.923 705.957L268.271 705.288L225.774 662.416L246.923 705.957ZM207.219 343.4L257.155 252.023L225.261 181.379L207.219 343.4ZM225.467 179.553L246.465 164.747L207.056 153.512L225.11 179.709L225.499 179.278L225.467 179.553ZM206.473 152.243L245.476 102.856L201.326 126.965L206.467 152.243L206.473 152.243ZM206.511 344.081L224.66 181.147L150.518 263.546L206.517 344.088L206.511 344.081ZM224.472 180.253L224.647 180.128L206.342 153.575L151.47 261.539L224.572 180.297L224.472 180.247L224.472 180.253ZM205.578 153.375L205.91 152.949L205.546 152.424L205.891 152.524L200.887 127.934L152.322 258.482L205.753 153.35L205.578 153.375ZM113.758 361.369L205.584 344.832L110.551 307.962L102.322 317.109L113.764 361.369L113.758 361.369ZM126.514 290.212L205.515 343.738L150.086 264.015L126.514 290.212ZM110.996 307.462L204.269 343.65L126.095 290.681L110.996 307.462ZM149.93 263.108L200.43 127.353L1.72841 208.307L149.948 263.133L149.93 263.108ZM110.37 307.218L125.569 290.324L102.848 274.931L98.6588 302.673L110.37 307.218ZM102.128 316.378L109.925 307.712L98.7715 303.385L102.128 316.378ZM46.0291 378.732L101.627 316.934L98.1828 303.61L46.0291 378.725L46.0291 378.732Z" fill="url(#paint0_linear_1_4022)"/>
<defs>
<linearGradient id="paint0_linear_1_4022" x1="367.499" y1="979" x2="367.499" y2="2.94143e-05" gradientUnits="userSpaceOnUse">
<stop stop-color="#926EFB"/>
<stop offset="1" stop-color="#465BD7"/>
<stop offset="1" stop-color="#4A56AB"/>
</linearGradient>
</defs>
</svg>
