<svg width="235" height="735" viewBox="0 0 235 735" fill="none" xmlns="http://www.w3.org/2000/svg">
<path opacity="0.2" d="M235 413.349L180.052 458.204L186.839 483.951L221.902 441.461L194.072 511.289L219.592 551.498L183.584 540.899L181.063 548.019L193.122 627.611L193.296 627.728L193.155 627.845L193.372 629.277L192.821 628.122L139.924 671.997L140.554 672.673L139.863 672.359L143.033 699.283L84.2942 686.15L64.4701 735L64.2161 734.714L-51.4788 603.108L-94.3065 564.383L-117.423 572.438L-117.498 572.212L-131.895 530.389L-132.28 530.037L-132.059 530.037L-149.09 494.982L-114.869 529.492L-50.6181 527.474L-50.5005 527.366L-50.4159 527.464L-50.3876 527.464L-50.3312 527.568L67.5366 665.994L102.858 649.903L104.979 647.354L37.2243 562.519L36.9185 562.697L37.022 562.28L36.6646 561.895L36.7351 561.904L35.8274 560.773L37.1396 561.806L67.2591 439.316L67.3485 439.663L101.851 378.852L103.841 333.616L103.808 333.654L103.864 332.992L103.827 332.903L103.874 332.856L103.893 332.372L103.916 332.396L107.025 295.942L109.264 258.235L82.0837 239.694L37.6475 221.411L-52.2972 224.101L-52.4336 224.608L-52.5276 224.378L-52.7064 224.65L-52.7064 224.115L-53.4448 224.138L-52.7722 223.767L-72.9961 173.898L-123.434 189.431L-161.393 258.864L-160.867 259.071L-161.328 259.156L-160.815 259.892L-161.647 259.329L-162.094 260.151L-161.995 259.278L-231.9 271.862L-240.521 238.511L-284.562 287.446L-284.929 287.155L-243.371 227.321L-240.097 205.625L-222.366 217.637L-204.654 197.955L-317 156.409L-316.44 156.179L-166.153 94.9924L-131.862 76.2728L-33.7194 0.582019L-33.7758 0.370776L-33.5125 0.422412L-32.9669 -1.24155e-05L-33.1409 0.497546L12.4147 9.54753L12.5464 9.09227L12.7533 9.61797L13.0355 9.6743L12.8568 9.87138L31.1994 55.9007L97.8724 6.3275L90.6953 47.3107L103.295 92.4435L80.32 100.508L155.859 227.645L156.075 227.537L156.014 227.908L156.922 229.438L155.925 228.443L150.779 260.47L152.91 261.216L153.62 260.681L150.916 266.009L168.572 272.632L168.769 272.261L168.882 272.745L169.277 272.89L168.957 273.045L177.009 307.142L177.042 307.105L177.193 307.912L177.169 307.912L190.126 391.141L212.547 389.508L190.498 427.027L235 413.344L235 413.349ZM179.92 457.702L232.841 414.499L190.225 427.604L190.225 427.75L190.098 427.712L190.032 427.825L189.99 427.778L175.998 442.817L179.92 457.702ZM193.851 510.566L220.349 444.075L186.985 484.51L193.851 510.566ZM183.739 540.457L218.525 550.695L193.866 511.847L183.739 540.457ZM190.221 426.572L211.681 390.043L190.155 391.611L190.221 426.567L190.221 426.572ZM179.648 538.702L193.475 511.439L171.789 503.164L170.034 577.113L179.243 539.617L179.187 539.598L179.304 539.373L179.582 538.246L179.648 538.692L179.648 538.702ZM171.953 502.727L193.461 510.932L186.613 484.955L171.953 502.722L171.953 502.727ZM140.056 671.274L192.511 627.77L161.093 606.633L140.056 671.274ZM170.006 579.258L192.436 626.221L180.729 548.963L170.006 579.258ZM183.288 540.326L192.375 514.664L179.869 539.321L183.293 540.331L183.288 540.326ZM161.244 606.169L192.323 627.076L169.794 579.906L161.249 606.173L161.244 606.169ZM160.275 394.394L189.75 426.82L189.684 391.648L160.27 394.39L160.275 394.394ZM159.88 393.958L189.651 391.179L176.736 308.212L131.693 362.944L159.88 393.953L159.88 393.958ZM175.692 442.451L189.562 427.539L108.431 402.182L108.248 403.486L175.692 442.451ZM108.497 401.712L189.233 426.942L159.692 394.441L108.85 399.182L108.497 401.707L108.497 401.712ZM171.426 502.624L186.472 484.392L179.652 458.524L91.3585 530.595L171.426 502.624ZM180.913 547.029L183.133 540.762L179.817 539.786L180.913 547.029ZM171.107 574.728L180.579 547.968L179.474 540.664L171.107 574.728ZM93.1128 528.558L179.516 458.026L175.612 443.212L93.1128 528.558ZM151.311 306.034L176.586 307.41L168.6 273.58L151.311 306.034ZM131.374 362.597L176.412 307.87L151.071 306.494L124.949 355.528L131.374 362.597ZM90.5072 530.576L175.358 442.799L108.177 403.989L90.5072 530.576ZM169.522 578.854L171.318 503.159L90.7189 531.318L169.517 578.854L169.522 578.854ZM156.179 603.052L169.371 579.45L38.0897 562.552L121.163 627.906L121.544 627.451L121.44 628.202L128.166 644.204L156.179 603.052ZM160.835 605.892L168.778 581.478L156.686 603.103L160.83 605.892L160.835 605.892ZM37.9909 562.068L168.67 578.892L90.2109 531.557L89.8394 531.942L89.8723 531.708L37.9909 562.068ZM150.793 306.011L168.139 273.453L147.045 283.733L146.998 284.034L146.871 283.921L131.242 304.95L150.798 306.011L150.793 306.011ZM147.134 283.165L168.092 272.956L150.704 266.436L149.415 268.975L147.134 283.165ZM141.293 665.947L160.684 606.361L156.527 603.563L141.293 665.947ZM108.916 398.713L159.297 394.014L131.392 363.315L110.275 388.973L108.916 398.708L108.916 398.713ZM139.52 671.223L155.845 604.385L128.387 644.72L139.52 671.223ZM150.328 260.315L155.459 228.372L115.778 248.233L150.328 260.315ZM115.157 248.017L155.365 227.894L42.2755 115.101L107.401 245.304L115.157 248.017ZM41.8475 114.017L154.603 226.476L79.8591 100.672L41.8475 114.017ZM150.346 263.15L152.411 261.592L150.666 261.16L150.346 263.15ZM150.469 265.844L152.275 262.282L150.234 263.821L149.942 265.647L150.469 265.844ZM124.606 355.162L150.544 306.466L130.95 305.401L117.725 347.595L124.601 355.162L124.606 355.162ZM149.65 267.45L150.252 266.262L149.867 266.117L149.655 267.445L149.65 267.45ZM149.801 263.558L150.205 261.047L113.751 252.072L148 264.915L149.801 263.554L149.801 263.558ZM149.49 265.478L149.693 264.23L148.522 265.117L149.495 265.483L149.49 265.478ZM148.954 268.825L149.415 265.952L148.075 265.45L136.542 274.153L143.24 280.086L148.954 268.825ZM146.659 283.114L148.71 270.346L143.602 280.41L146.659 283.114ZM110.604 250.819L148.207 260.076L115.185 248.528L110.604 250.819ZM136.18 273.834L147.553 265.253L111.032 251.556L136.18 273.834ZM135.592 296.186L146.466 283.616L143.122 281.335L135.588 296.186L135.592 296.186ZM143.343 280.912L143.884 281.278L143.381 280.832L143.343 280.907L143.343 280.912ZM142.953 280.645L143.019 280.513L136.157 274.434L135.061 275.261L142.953 280.645ZM132.239 302.796L142.854 288.512L134.713 297.923L132.239 302.796ZM134.318 297.656L142.737 281.067L134.666 275.561L107.73 295.886L128.74 304.105L134.318 297.656ZM85.1691 685.863L142.487 698.683L139.397 672.434L139.106 672.678L139.223 672.312L85.1644 685.873L85.1691 685.863ZM85.2302 685.366L138.875 671.908L116.827 661.914L116.794 662.144L116.591 661.896L85.2255 685.361L85.2302 685.366ZM122.532 653.334L138.857 670.847L128.077 645.19L122.532 653.334ZM116.986 661.478L138.612 671.279L122.259 653.733L116.986 661.478ZM134.666 274.993L135.813 274.129L110.148 251.396L109.758 258.001L134.671 274.993L134.666 274.993ZM107.533 295.468L134.271 275.293L109.725 258.55L107.533 295.473L107.533 295.468ZM130.682 304.87L133.457 299.407L129.224 304.298L130.687 304.87L130.682 304.87ZM110.407 388.095L131.077 362.977L124.719 355.983L111.394 380.993L110.402 388.095L110.407 388.095ZM110.228 326.251L130.381 305.26L128.895 304.678L110.228 326.251ZM117.377 347.201L130.273 306.053L104.433 332.964L117.377 347.201ZM104.41 332.26L128.434 304.495L107.481 296.299L104.415 332.26L104.41 332.26ZM122.207 652.986L127.86 644.678L121.328 629.127L118.59 649.105L122.207 652.986ZM111.587 379.636L124.385 355.612L117.579 348.125L114.705 357.298L111.587 379.636ZM117.01 660.624L121.934 653.385L118.506 649.705L117.01 660.619L117.01 660.624ZM110.637 640.576L120.876 628.282L39.5383 564.293L110.637 640.576ZM118.176 648.663L120.867 629.028L110.962 640.923L118.176 648.663ZM116.483 661.009L118.092 649.264L110.656 641.289L105.591 647.372L116.483 661.009ZM114.489 356.424L117.217 347.727L104.89 334.166L114.489 356.424ZM84.8539 685.075L116.267 661.572L103.084 650.475L84.8539 685.075ZM103.342 650.076L114.978 659.873L105.289 647.739L103.342 650.076ZM110.054 250.589L114.588 248.322L107.716 245.918L110.054 250.589ZM102.373 377.965L114.249 357.039L104.311 333.997L102.373 377.965ZM110.952 380.847L113.859 360.034L102.167 397.347L110.957 380.847L110.952 380.847ZM101.499 397.891L113.633 359.081L102.331 378.998L101.499 397.891ZM109.842 388.794L110.764 382.204L102.5 397.722L109.847 388.799L109.842 388.794ZM105.299 646.997L110.341 640.942L41.3208 566.889L105.299 646.997ZM108.45 398.769L109.72 389.681L101.724 399.398L108.45 398.769ZM109.315 257.696L109.711 251.058L84.2048 240.563L109.32 257.696L109.315 257.696ZM94.6931 241.361L109.377 250.279L107.081 245.693L94.6931 241.361ZM108.055 401.585L108.38 399.248L102.369 399.811L108.055 401.59L108.055 401.585ZM107.825 403.247L107.989 402.055L103.131 400.539L107.82 403.247L107.825 403.247ZM91.1327 522.827L107.754 403.749L101.386 400.069L91.1327 522.827ZM82.3236 239.281L107.255 249.538L92.5625 240.61L75.5603 234.662L82.3236 239.276L82.3236 239.281ZM92.76 240.187L106.78 245.092L41.4572 114.491L9.80436 189.802L92.76 240.187ZM80.0848 100.109L102.736 92.1572L90.3708 47.86L67.499 78.9248L80.0848 100.109ZM84.1155 685.469L102.482 650.607L67.8611 666.383L84.1155 685.474L84.1155 685.469ZM100.958 399.37L101.814 379.899L68.7641 438.147L100.817 399.75L99.227 398.83L100.958 399.37ZM90.0698 529.849L100.883 400.407L67.5319 440.363L90.0698 529.854L90.0698 529.849ZM90.2626 47.1277L97.214 7.42119L31.9942 55.9101L90.2626 47.1277ZM74.06 233.648L90.6248 239.441L16.9815 194.712L74.06 233.648ZM67.2356 78.4883L89.9381 47.6487L32.2811 56.3373L57.9702 62.8948L58.0219 62.9793L67.2356 78.4836L67.2356 78.4883ZM37.6522 561.745L89.9146 531.163L67.2732 441.278L37.6475 561.749L37.6522 561.745ZM64.3243 734.118L83.7628 686.22L83.0761 686.394L83.5276 686.056L35.4982 681.329L36.0626 682.343L34.9667 681.277L34.1813 681.197L34.6516 680.981L-48.4264 605.863L64.3243 734.118ZM35.9685 680.897L83.3113 685.558L61.0556 669.467L35.9685 680.897ZM61.5494 669.242L82.7093 684.54L67.4096 666.571L61.5494 669.242ZM45.8453 224.27L80.2165 238.408L73.8389 234.057L45.8453 224.265L45.8453 224.27ZM42.0686 113.444L79.6239 100.259L67.1885 79.3238L42.0686 113.444ZM37.8309 220.97L72.3433 233.038L10.9849 191.182L37.8309 220.97ZM61.112 668.923L67.0945 666.2L-49.1554 529.68L6.56387 629.488L61.112 668.927L61.112 668.923ZM42.0921 112.614L66.9252 78.8826L57.8761 63.6553L42.0921 112.614ZM35.1736 680.737L60.6135 669.148L7.1 630.455L35.1689 680.737L35.1736 680.737ZM39.3924 110.764L57.4999 63.2516L31.1806 56.5345L14.4653 76.9534L39.3924 110.769L39.3924 110.764ZM41.3396 113.407L54.8237 71.5928L39.7264 111.215L41.3442 113.407L41.3396 113.407ZM40.9915 113.82L41.0433 113.801L39.5241 111.741L38.052 115.604L41.0385 113.867L40.9915 113.82ZM14.6675 176.973L40.9351 114.472L37.7886 116.298L14.6675 176.968L14.6675 176.973ZM37.4077 115.979L39.1949 111.29L14.3242 77.5495L6.46036 133.948L37.4077 115.979ZM-51.507 223.608L37.1819 220.956L9.44694 190.187L-51.507 223.613L-51.507 223.608ZM9.66328 188.783L37.1396 116.679L6.3992 134.525L9.66328 188.783ZM-70.1318 574.616L34.0308 679.658L6.19699 629.803L-70.1318 574.616ZM29.9107 56.2106L30.762 56.0838L12.6216 10.552L-9.66232 88.9841L-9.3425 88.8057L-9.37542 88.8526L14.0138 76.7562L30.6726 56.403L29.906 56.2059L29.9107 56.2106ZM-51.1401 602.775L25.7202 672.269L-83.3479 566.133L-51.1401 602.77L-51.1401 602.775ZM-85.0364 563.838L16.3701 662.515L-72.4693 572.921L-85.0364 563.833L-85.0364 563.838ZM6.05588 133.417L13.8727 77.3617L-9.75168 89.5802L6.05588 133.422L6.05588 133.417ZM-21.0865 46.6583L12.1324 9.97002L-33.1268 0.981006L-21.0818 46.6583L-21.0865 46.6583ZM-10.0339 88.571L12.0854 10.7258L-20.9407 47.2028L-10.0339 88.5757L-10.0339 88.571ZM-13.9658 165.529L9.22117 189.267L5.96653 135.112L-13.9658 165.529ZM-51.7657 223.209L9.10828 189.825L-14.2339 165.928L-51.7704 223.204L-51.7657 223.209ZM-31.7581 147.316L5.85364 134.248L-10.1044 89.9933L-52.0526 155.568L-53.9292 156.46L-52.9792 157.235L-52.7487 157.047L-52.7487 157.169L-32.0215 147.424L-31.9416 147.133L-31.7581 147.321L-31.7581 147.316ZM-72.1636 572.564L5.65615 628.831L-50.5899 528.079L-84.9188 559.698L-72.1589 572.564L-72.1636 572.564ZM-14.3044 165.182L5.58085 134.835L-31.396 147.682L-14.3044 165.182ZM-67.8367 98.987L-10.3396 89.2704L-21.3217 47.6111L-67.8367 98.987ZM-52.3771 155.198L-10.7488 90.1153L-84.773 131.319L-54.3384 156.122L-52.3818 155.193L-52.3771 155.198ZM-84.6131 130.695L-11.459 89.9745L-69.2617 101.357L-84.6131 130.695ZM-51.8692 222.5L-14.5725 165.585L-31.7064 148.044L-51.8692 222.505L-51.8692 222.5ZM-67.8508 98.3016L-21.4675 47.0713L-33.489 1.46923L-67.8508 98.3016ZM-68.9843 100.827L-27.1066 92.5796L-68.3117 99.5408L-68.9843 100.827ZM-52.2595 222.143L-32.1814 148.006L-52.7393 157.676L-52.2548 222.139L-52.2595 222.143ZM-68.608 99.0292L-33.9451 1.34716L-131.255 76.3948L-68.608 99.0292ZM-85.2527 559.36L-51.1543 527.953L-114.422 529.943L-85.2527 559.36ZM-72.4129 174.096L-52.7252 222.636L-53.2096 158.019L-72.4976 173.603L-71.2042 174.71L-72.4082 174.096L-72.4129 174.096ZM-72.7421 173.194L-53.3554 157.531L-54.4042 156.676L-74.7457 166.318L-72.7421 173.194ZM-93.8032 564.2L-54.1972 600.01L-87.5855 562.031L-93.8032 564.2ZM-74.8774 165.862L-54.804 156.348L-84.7495 131.944L-74.8727 165.862L-74.8774 165.862ZM-69.5769 100.94L-68.9231 99.6864L-86.2592 104.225L-69.5816 100.94L-69.5769 100.94ZM-93.7327 105.695L-69.257 99.2873L-131.66 76.7374L-161.516 114.529L-93.7327 105.69L-93.7327 105.695ZM-85.1399 130.681L-69.8544 101.47L-93.3799 106.103L-85.1399 130.681ZM-78.7811 168.228L-73.3112 172.903L-75.169 166.52L-78.7764 168.228L-78.7811 168.228ZM-120.56 188.037L-73.49 173.542L-81.4337 169.491L-120.56 188.041L-120.56 188.037ZM-87.007 561.824L-74.5058 570.865L-85.2715 560.008L-87.1387 561.726L-87.0023 561.82L-87.007 561.824ZM-80.9023 169.233L-74.5294 172.481L-79.2467 168.449L-80.8975 169.233L-80.9023 169.233ZM-79.1762 167.895L-75.3101 166.059L-85.375 131.484L-130.568 123.959L-79.1762 167.895ZM-81.429 168.965L-79.6371 168.115L-131.373 123.889L-147.505 135.262L-81.429 168.965ZM-123.49 188.905L-81.9652 169.219L-147.472 135.802L-123.485 188.905L-123.49 188.905ZM-131.312 123.363L-85.5396 130.986L-93.855 106.183L-160.909 114.928L-131.316 123.363L-131.312 123.363ZM-87.5338 561.449L-85.6055 559.675L-115.071 529.957L-130.996 530.459L-87.5291 561.449L-87.5338 561.449ZM-94.203 563.833L-88.0182 561.679L-128.532 532.792L-94.1983 563.833L-94.203 563.833ZM-117.136 571.827L-94.7062 564.012L-131.18 531.036L-117.136 571.832L-117.136 571.827ZM-131.556 530.008L-115.523 529.506L-147.439 497.319L-131.556 530.008ZM-161.375 257.813L-123.871 189.21L-147.825 136.173L-161.375 257.813ZM-147.669 134.802L-131.899 123.687L-161.497 115.252L-147.937 134.919L-147.646 134.596L-147.669 134.802ZM-161.934 114.299L-132.643 77.2209L-165.8 95.321L-161.939 114.299L-161.934 114.299ZM-161.906 258.325L-148.276 135.999L-203.958 197.861L-161.901 258.329L-161.906 258.325ZM-148.417 135.328L-148.286 135.234L-162.033 115.299L-203.243 196.355L-148.342 135.361L-148.417 135.323L-148.417 135.328ZM-162.607 115.148L-162.358 114.829L-162.63 114.435L-162.372 114.51L-166.13 96.0485L-202.603 194.059L-162.475 115.13L-162.607 115.148ZM-231.566 271.304L-162.602 258.888L-233.974 231.207L-240.154 238.075L-231.561 271.304L-231.566 271.304ZM-221.985 217.881L-162.654 258.066L-204.282 198.213L-221.985 217.881ZM-233.64 230.832L-163.59 258.001L-222.3 218.233L-233.64 230.832ZM-204.4 197.533L-166.473 95.612L-315.702 156.39L-204.386 197.552L-204.4 197.533ZM-234.11 230.649L-222.695 217.966L-239.759 206.409L-242.905 227.236L-234.11 230.649ZM-240.3 237.526L-234.444 231.02L-242.821 227.771L-240.3 237.526ZM-282.431 284.339L-240.676 237.943L-243.263 227.94L-282.431 284.334L-282.431 284.339Z" fill="url(#paint0_linear_1_4095)"/>
<defs>
<linearGradient id="paint0_linear_1_4095" x1="-41.0004" y1="735" x2="-41.0005" y2="-2.3744e-05" gradientUnits="userSpaceOnUse">
<stop stop-color="#926EFB"/>
<stop offset="1" stop-color="#465BD7"/>
<stop offset="1" stop-color="#4A56AB"/>
</linearGradient>
</defs>
</svg>
