<svg width="230" height="141" viewBox="0 0 230 141" fill="none" xmlns="http://www.w3.org/2000/svg">
<circle cx="227.5" cy="3.41699" r="2.5" transform="rotate(90 227.5 3.41699)" fill="white"/>
<circle cx="227.5" cy="48.417" r="2.5" transform="rotate(90 227.5 48.417)" fill="white"/>
<circle cx="227.5" cy="93.417" r="2.5" transform="rotate(90 227.5 93.417)" fill="white"/>
<circle cx="227.5" cy="138.417" r="2.5" transform="rotate(90 227.5 138.417)" fill="white"/>
<circle cx="182.5" cy="3.41699" r="2.5" transform="rotate(90 182.5 3.41699)" fill="white"/>
<circle cx="182.5" cy="48.417" r="2.5" transform="rotate(90 182.5 48.417)" fill="white"/>
<circle cx="182.5" cy="93.417" r="2.5" transform="rotate(90 182.5 93.417)" fill="white"/>
<circle cx="182.5" cy="138.417" r="2.5" transform="rotate(90 182.5 138.417)" fill="white"/>
<circle cx="137.5" cy="3.41699" r="2.5" transform="rotate(90 137.5 3.41699)" fill="white"/>
<circle cx="137.5" cy="48.417" r="2.5" transform="rotate(90 137.5 48.417)" fill="white"/>
<circle cx="137.5" cy="93.417" r="2.5" transform="rotate(90 137.5 93.417)" fill="white"/>
<circle cx="137.5" cy="138.417" r="2.5" transform="rotate(90 137.5 138.417)" fill="white"/>
<circle cx="92.5" cy="3.41699" r="2.5" transform="rotate(90 92.5 3.41699)" fill="white"/>
<circle cx="92.5" cy="48.417" r="2.5" transform="rotate(90 92.5 48.417)" fill="white"/>
<circle cx="92.5" cy="93.417" r="2.5" transform="rotate(90 92.5 93.417)" fill="white"/>
<circle cx="92.5" cy="138.417" r="2.5" transform="rotate(90 92.5 138.417)" fill="white"/>
<circle cx="47.5" cy="3.41699" r="2.5" transform="rotate(90 47.5 3.41699)" fill="white"/>
<circle cx="47.5" cy="48.417" r="2.5" transform="rotate(90 47.5 48.417)" fill="white"/>
<circle cx="47.5" cy="93.417" r="2.5" transform="rotate(90 47.5 93.417)" fill="white"/>
<circle cx="47.5" cy="138.417" r="2.5" transform="rotate(90 47.5 138.417)" fill="white"/>
<circle cx="2.5" cy="3.41699" r="2.5" transform="rotate(90 2.5 3.41699)" fill="white"/>
<circle cx="2.5" cy="48.417" r="2.5" transform="rotate(90 2.5 48.417)" fill="white"/>
<circle cx="2.5" cy="93.417" r="2.5" transform="rotate(90 2.5 93.417)" fill="white"/>
<circle cx="2.5" cy="138.417" r="2.5" transform="rotate(90 2.5 138.417)" fill="white"/>
</svg>
