<svg width="217" height="150" viewBox="0 0 217 150" fill="none" xmlns="http://www.w3.org/2000/svg">
<ellipse cx="182.5" cy="2.66539" rx="2.66539" ry="2.5" transform="rotate(90 182.5 2.66539)" fill="#FAFAFC"/>
<ellipse cx="182.5" cy="50.6424" rx="2.66539" ry="2.5" transform="rotate(90 182.5 50.6424)" fill="#FAFAFC"/>
<ellipse cx="182.5" cy="98.6195" rx="2.66539" ry="2.5" transform="rotate(90 182.5 98.6195)" fill="#FAFAFC"/>
<ellipse cx="182.5" cy="146.597" rx="2.66539" ry="2.5" transform="rotate(90 182.5 146.597)" fill="#FAFAFC"/>
<ellipse cx="137.5" cy="2.66539" rx="2.66539" ry="2.5" transform="rotate(90 137.5 2.66539)" fill="#FAFAFC"/>
<ellipse cx="137.5" cy="50.6424" rx="2.66539" ry="2.5" transform="rotate(90 137.5 50.6424)" fill="#FAFAFC"/>
<ellipse cx="137.5" cy="98.6195" rx="2.66539" ry="2.5" transform="rotate(90 137.5 98.6195)" fill="#FAFAFC"/>
<ellipse cx="137.5" cy="146.597" rx="2.66539" ry="2.5" transform="rotate(90 137.5 146.597)" fill="#FAFAFC"/>
<ellipse cx="92.5" cy="2.66539" rx="2.66539" ry="2.5" transform="rotate(90 92.5 2.66539)" fill="#FAFAFC"/>
<ellipse cx="92.5" cy="50.6424" rx="2.66539" ry="2.5" transform="rotate(90 92.5 50.6424)" fill="#FAFAFC"/>
<ellipse cx="92.5" cy="98.6195" rx="2.66539" ry="2.5" transform="rotate(90 92.5 98.6195)" fill="#FAFAFC"/>
<ellipse cx="92.5" cy="146.597" rx="2.66539" ry="2.5" transform="rotate(90 92.5 146.597)" fill="#FAFAFC"/>
<ellipse cx="47.5" cy="2.66539" rx="2.66539" ry="2.5" transform="rotate(90 47.5 2.66539)" fill="#FAFAFC"/>
<ellipse cx="47.5" cy="50.6424" rx="2.66539" ry="2.5" transform="rotate(90 47.5 50.6424)" fill="#FAFAFC"/>
<ellipse cx="47.5" cy="98.6195" rx="2.66539" ry="2.5" transform="rotate(90 47.5 98.6195)" fill="#FAFAFC"/>
<ellipse cx="47.5" cy="146.597" rx="2.66539" ry="2.5" transform="rotate(90 47.5 146.597)" fill="#FAFAFC"/>
<ellipse cx="2.5" cy="2.66539" rx="2.66539" ry="2.5" transform="rotate(90 2.5 2.66539)" fill="#FAFAFC"/>
<ellipse cx="2.5" cy="50.6424" rx="2.66539" ry="2.5" transform="rotate(90 2.5 50.6424)" fill="#FAFAFC"/>
<ellipse cx="2.5" cy="98.6195" rx="2.66539" ry="2.5" transform="rotate(90 2.5 98.6195)" fill="#FAFAFC"/>
<ellipse cx="2.5" cy="146.597" rx="2.66539" ry="2.5" transform="rotate(90 2.5 146.597)" fill="#FAFAFC"/>
</svg>
