<svg width="1920" height="1470" viewBox="0 0 1920 1470" fill="none" xmlns="http://www.w3.org/2000/svg">
<g opacity="0.05">
<path fill-rule="evenodd" clip-rule="evenodd" d="M100.5 908V0H101.5V908H100.5Z" fill="url(#paint0_linear_320_543)"/>
<path fill-rule="evenodd" clip-rule="evenodd" d="M200.5 908V0H201.5V908H200.5Z" fill="url(#paint1_linear_320_543)"/>
<path fill-rule="evenodd" clip-rule="evenodd" d="M300.5 908V0H301.5V908H300.5Z" fill="url(#paint2_linear_320_543)"/>
<path fill-rule="evenodd" clip-rule="evenodd" d="M400.5 908V0H401.5V908H400.5Z" fill="url(#paint3_linear_320_543)"/>
<path fill-rule="evenodd" clip-rule="evenodd" d="M500.5 908V0H501.5V908H500.5Z" fill="url(#paint4_linear_320_543)"/>
<path fill-rule="evenodd" clip-rule="evenodd" d="M600.5 908V0H601.5V908H600.5Z" fill="url(#paint5_linear_320_543)"/>
<path fill-rule="evenodd" clip-rule="evenodd" d="M700.5 908V0H701.5V908H700.5Z" fill="url(#paint6_linear_320_543)"/>
<path fill-rule="evenodd" clip-rule="evenodd" d="M800.5 908V0H801.5V908H800.5Z" fill="url(#paint7_linear_320_543)"/>
<path fill-rule="evenodd" clip-rule="evenodd" d="M900.5 908V0H901.5V908H900.5Z" fill="url(#paint8_linear_320_543)"/>
<path fill-rule="evenodd" clip-rule="evenodd" d="M1000.5 908V0H1001.5V908H1000.5Z" fill="url(#paint9_linear_320_543)"/>
<path fill-rule="evenodd" clip-rule="evenodd" d="M1100.5 908V0H1101.5V908H1100.5Z" fill="url(#paint10_linear_320_543)"/>
<path fill-rule="evenodd" clip-rule="evenodd" d="M1200.5 908V0H1201.5V908H1200.5Z" fill="url(#paint11_linear_320_543)"/>
<path fill-rule="evenodd" clip-rule="evenodd" d="M1300.5 908V0H1301.5V908H1300.5Z" fill="url(#paint12_linear_320_543)"/>
<path fill-rule="evenodd" clip-rule="evenodd" d="M1400.5 908V0H1401.5V908H1400.5Z" fill="url(#paint13_linear_320_543)"/>
<path fill-rule="evenodd" clip-rule="evenodd" d="M1500.5 908V0H1501.5V908H1500.5Z" fill="url(#paint14_linear_320_543)"/>
<path fill-rule="evenodd" clip-rule="evenodd" d="M1600.5 908V0H1601.5V908H1600.5Z" fill="url(#paint15_linear_320_543)"/>
<path fill-rule="evenodd" clip-rule="evenodd" d="M1700.5 908V0H1701.5V908H1700.5Z" fill="url(#paint16_linear_320_543)"/>
<path fill-rule="evenodd" clip-rule="evenodd" d="M1800.5 908V0H1801.5V908H1800.5Z" fill="url(#paint17_linear_320_543)"/>
<path fill-rule="evenodd" clip-rule="evenodd" d="M1900.5 908V0H1901.5V908H1900.5Z" fill="url(#paint18_linear_320_543)"/>
<path fill-rule="evenodd" clip-rule="evenodd" d="M1920 0.5H0V-0.5H1920V0.5Z" fill="url(#paint19_linear_320_543)"/>
<path fill-rule="evenodd" clip-rule="evenodd" d="M1920 100.5H0V99.5H1920V100.5Z" fill="url(#paint20_linear_320_543)"/>
<path fill-rule="evenodd" clip-rule="evenodd" d="M1920 200.5H0V199.5H1920V200.5Z" fill="url(#paint21_linear_320_543)"/>
<path fill-rule="evenodd" clip-rule="evenodd" d="M1920 300.5H0V299.5H1920V300.5Z" fill="url(#paint22_linear_320_543)"/>
<path fill-rule="evenodd" clip-rule="evenodd" d="M1920 400.5H0V399.5H1920V400.5Z" fill="url(#paint23_linear_320_543)"/>
<path fill-rule="evenodd" clip-rule="evenodd" d="M1920 500.5H0V499.5H1920V500.5Z" fill="url(#paint24_linear_320_543)"/>
<path fill-rule="evenodd" clip-rule="evenodd" d="M1920 600.5H0V599.5H1920V600.5Z" fill="url(#paint25_linear_320_543)"/>
<path fill-rule="evenodd" clip-rule="evenodd" d="M1920 700.5H0V699.5H1920V700.5Z" fill="url(#paint26_linear_320_543)"/>
<path fill-rule="evenodd" clip-rule="evenodd" d="M1920 800.5H0V799.5H1920V800.5Z" fill="url(#paint27_linear_320_543)"/>
</g>
<g style="mix-blend-mode:hard-light" opacity="0.25" filter="url(#filter0_bf_320_543)">
<path d="M1315.17 460.09C1027.57 451.29 1086.34 663.423 1151.67 770.59C1297.17 625.09 1238.67 678.09 1425.67 879.59C1612.67 1081.09 1632.67 919.59 1792.67 627.09C1952.67 334.59 1734.17 294.59 1710.67 387.59C1687.17 480.59 1674.67 471.09 1315.17 460.09Z" fill="#7B61FF"/>
</g>
<g style="mix-blend-mode:exclusion" opacity="0.2" filter="url(#filter1_bf_320_543)">
<path d="M445.365 317.725C23.6328 236.953 -16.9874 474.893 -32.5186 476.484C-32.5186 520.253 -65.9705 679.41 49.9163 795.196C165.803 910.983 143.502 575.958 283.681 716.016C423.86 856.074 570.013 601.025 445.365 476.484C320.717 351.944 867.097 398.497 445.365 317.725Z" fill="#FFB800"/>
</g>
<defs>
<filter id="filter0_bf_320_543" x="598" y="-157" width="1752.8" height="1626.25" filterUnits="userSpaceOnUse" color-interpolation-filters="sRGB">
<feFlood flood-opacity="0" result="BackgroundImageFix"/>
<feGaussianBlur in="BackgroundImageFix" stdDeviation="150"/>
<feComposite in2="SourceAlpha" operator="in" result="effect1_backgroundBlur_320_543"/>
<feBlend mode="normal" in="SourceGraphic" in2="effect1_backgroundBlur_320_543" result="shape"/>
<feGaussianBlur stdDeviation="250" result="effect2_foregroundBlur_320_543"/>
</filter>
<filter id="filter1_bf_320_543" x="-537" y="-199" width="1645" height="1519" filterUnits="userSpaceOnUse" color-interpolation-filters="sRGB">
<feFlood flood-opacity="0" result="BackgroundImageFix"/>
<feGaussianBlur in="BackgroundImageFix" stdDeviation="150"/>
<feComposite in2="SourceAlpha" operator="in" result="effect1_backgroundBlur_320_543"/>
<feBlend mode="normal" in="SourceGraphic" in2="effect1_backgroundBlur_320_543" result="shape"/>
<feGaussianBlur stdDeviation="250" result="effect2_foregroundBlur_320_543"/>
</filter>
<linearGradient id="paint0_linear_320_543" x1="100.5" y1="453.999" x2="101.5" y2="453.999" gradientUnits="userSpaceOnUse">
<stop stop-color="#926EFB"/>
<stop offset="1" stop-color="#465BD7"/>
<stop offset="1" stop-color="#4A56AB"/>
</linearGradient>
<linearGradient id="paint1_linear_320_543" x1="200.5" y1="453.999" x2="201.5" y2="453.999" gradientUnits="userSpaceOnUse">
<stop stop-color="#926EFB"/>
<stop offset="1" stop-color="#465BD7"/>
<stop offset="1" stop-color="#4A56AB"/>
</linearGradient>
<linearGradient id="paint2_linear_320_543" x1="300.5" y1="453.999" x2="301.5" y2="453.999" gradientUnits="userSpaceOnUse">
<stop stop-color="#926EFB"/>
<stop offset="1" stop-color="#465BD7"/>
<stop offset="1" stop-color="#4A56AB"/>
</linearGradient>
<linearGradient id="paint3_linear_320_543" x1="400.5" y1="453.999" x2="401.5" y2="453.999" gradientUnits="userSpaceOnUse">
<stop stop-color="#926EFB"/>
<stop offset="1" stop-color="#465BD7"/>
<stop offset="1" stop-color="#4A56AB"/>
</linearGradient>
<linearGradient id="paint4_linear_320_543" x1="500.5" y1="453.999" x2="501.5" y2="453.999" gradientUnits="userSpaceOnUse">
<stop stop-color="#926EFB"/>
<stop offset="1" stop-color="#465BD7"/>
<stop offset="1" stop-color="#4A56AB"/>
</linearGradient>
<linearGradient id="paint5_linear_320_543" x1="600.5" y1="453.999" x2="601.5" y2="453.999" gradientUnits="userSpaceOnUse">
<stop stop-color="#926EFB"/>
<stop offset="1" stop-color="#465BD7"/>
<stop offset="1" stop-color="#4A56AB"/>
</linearGradient>
<linearGradient id="paint6_linear_320_543" x1="700.5" y1="453.999" x2="701.5" y2="453.999" gradientUnits="userSpaceOnUse">
<stop stop-color="#926EFB"/>
<stop offset="1" stop-color="#465BD7"/>
<stop offset="1" stop-color="#4A56AB"/>
</linearGradient>
<linearGradient id="paint7_linear_320_543" x1="800.5" y1="453.999" x2="801.5" y2="453.999" gradientUnits="userSpaceOnUse">
<stop stop-color="#926EFB"/>
<stop offset="1" stop-color="#465BD7"/>
<stop offset="1" stop-color="#4A56AB"/>
</linearGradient>
<linearGradient id="paint8_linear_320_543" x1="900.5" y1="453.999" x2="901.5" y2="453.999" gradientUnits="userSpaceOnUse">
<stop stop-color="#926EFB"/>
<stop offset="1" stop-color="#465BD7"/>
<stop offset="1" stop-color="#4A56AB"/>
</linearGradient>
<linearGradient id="paint9_linear_320_543" x1="1000.5" y1="453.999" x2="1001.5" y2="453.999" gradientUnits="userSpaceOnUse">
<stop stop-color="#926EFB"/>
<stop offset="1" stop-color="#465BD7"/>
<stop offset="1" stop-color="#4A56AB"/>
</linearGradient>
<linearGradient id="paint10_linear_320_543" x1="1100.5" y1="453.999" x2="1101.5" y2="453.999" gradientUnits="userSpaceOnUse">
<stop stop-color="#926EFB"/>
<stop offset="1" stop-color="#465BD7"/>
<stop offset="1" stop-color="#4A56AB"/>
</linearGradient>
<linearGradient id="paint11_linear_320_543" x1="1200.5" y1="453.999" x2="1201.5" y2="453.999" gradientUnits="userSpaceOnUse">
<stop stop-color="#926EFB"/>
<stop offset="1" stop-color="#465BD7"/>
<stop offset="1" stop-color="#4A56AB"/>
</linearGradient>
<linearGradient id="paint12_linear_320_543" x1="1300.5" y1="453.999" x2="1301.5" y2="453.999" gradientUnits="userSpaceOnUse">
<stop stop-color="#926EFB"/>
<stop offset="1" stop-color="#465BD7"/>
<stop offset="1" stop-color="#4A56AB"/>
</linearGradient>
<linearGradient id="paint13_linear_320_543" x1="1400.5" y1="453.999" x2="1401.5" y2="453.999" gradientUnits="userSpaceOnUse">
<stop stop-color="#926EFB"/>
<stop offset="1" stop-color="#465BD7"/>
<stop offset="1" stop-color="#4A56AB"/>
</linearGradient>
<linearGradient id="paint14_linear_320_543" x1="1500.5" y1="453.999" x2="1501.5" y2="453.999" gradientUnits="userSpaceOnUse">
<stop stop-color="#926EFB"/>
<stop offset="1" stop-color="#465BD7"/>
<stop offset="1" stop-color="#4A56AB"/>
</linearGradient>
<linearGradient id="paint15_linear_320_543" x1="1600.5" y1="453.999" x2="1601.5" y2="453.999" gradientUnits="userSpaceOnUse">
<stop stop-color="#926EFB"/>
<stop offset="1" stop-color="#465BD7"/>
<stop offset="1" stop-color="#4A56AB"/>
</linearGradient>
<linearGradient id="paint16_linear_320_543" x1="1700.5" y1="453.999" x2="1701.5" y2="453.999" gradientUnits="userSpaceOnUse">
<stop stop-color="#926EFB"/>
<stop offset="1" stop-color="#465BD7"/>
<stop offset="1" stop-color="#4A56AB"/>
</linearGradient>
<linearGradient id="paint17_linear_320_543" x1="1800.5" y1="453.999" x2="1801.5" y2="453.999" gradientUnits="userSpaceOnUse">
<stop stop-color="#926EFB"/>
<stop offset="1" stop-color="#465BD7"/>
<stop offset="1" stop-color="#4A56AB"/>
</linearGradient>
<linearGradient id="paint18_linear_320_543" x1="1900.5" y1="453.999" x2="1901.5" y2="453.999" gradientUnits="userSpaceOnUse">
<stop stop-color="#926EFB"/>
<stop offset="1" stop-color="#465BD7"/>
<stop offset="1" stop-color="#4A56AB"/>
</linearGradient>
<linearGradient id="paint19_linear_320_543" x1="3.05101e-05" y1="-8.3854e-07" x2="1920" y2="-0.0106321" gradientUnits="userSpaceOnUse">
<stop stop-color="#926EFB"/>
<stop offset="1" stop-color="#465BD7"/>
<stop offset="1" stop-color="#4A56AB"/>
</linearGradient>
<linearGradient id="paint20_linear_320_543" x1="3.05101e-05" y1="100" x2="1920" y2="99.9894" gradientUnits="userSpaceOnUse">
<stop stop-color="#926EFB"/>
<stop offset="1" stop-color="#465BD7"/>
<stop offset="1" stop-color="#4A56AB"/>
</linearGradient>
<linearGradient id="paint21_linear_320_543" x1="3.05101e-05" y1="200" x2="1920" y2="199.989" gradientUnits="userSpaceOnUse">
<stop stop-color="#926EFB"/>
<stop offset="1" stop-color="#465BD7"/>
<stop offset="1" stop-color="#4A56AB"/>
</linearGradient>
<linearGradient id="paint22_linear_320_543" x1="3.05101e-05" y1="300" x2="1920" y2="299.989" gradientUnits="userSpaceOnUse">
<stop stop-color="#926EFB"/>
<stop offset="1" stop-color="#465BD7"/>
<stop offset="1" stop-color="#4A56AB"/>
</linearGradient>
<linearGradient id="paint23_linear_320_543" x1="3.05101e-05" y1="400" x2="1920" y2="399.989" gradientUnits="userSpaceOnUse">
<stop stop-color="#926EFB"/>
<stop offset="1" stop-color="#465BD7"/>
<stop offset="1" stop-color="#4A56AB"/>
</linearGradient>
<linearGradient id="paint24_linear_320_543" x1="3.05101e-05" y1="500" x2="1920" y2="499.989" gradientUnits="userSpaceOnUse">
<stop stop-color="#926EFB"/>
<stop offset="1" stop-color="#465BD7"/>
<stop offset="1" stop-color="#4A56AB"/>
</linearGradient>
<linearGradient id="paint25_linear_320_543" x1="3.05101e-05" y1="600" x2="1920" y2="599.989" gradientUnits="userSpaceOnUse">
<stop stop-color="#926EFB"/>
<stop offset="1" stop-color="#465BD7"/>
<stop offset="1" stop-color="#4A56AB"/>
</linearGradient>
<linearGradient id="paint26_linear_320_543" x1="3.05101e-05" y1="700" x2="1920" y2="699.989" gradientUnits="userSpaceOnUse">
<stop stop-color="#926EFB"/>
<stop offset="1" stop-color="#465BD7"/>
<stop offset="1" stop-color="#4A56AB"/>
</linearGradient>
<linearGradient id="paint27_linear_320_543" x1="3.05101e-05" y1="800" x2="1920" y2="799.989" gradientUnits="userSpaceOnUse">
<stop stop-color="#926EFB"/>
<stop offset="1" stop-color="#465BD7"/>
<stop offset="1" stop-color="#4A56AB"/>
</linearGradient>
</defs>
</svg>
