<svg width="30" height="30" viewBox="0 0 30 30" fill="none" xmlns="http://www.w3.org/2000/svg">
<path d="M9.45504 16.5H4.54588C4.26973 16.5 4.0459 16.7238 4.0459 17C4.0459 17.2761 4.26973 17.5 4.54588 17.5H9.45504C9.58764 17.5 9.71484 17.4473 9.80865 17.3535C9.9024 17.2598 9.95508 17.1326 9.95508 16.9999C9.95514 16.8673 9.90246 16.7401 9.80865 16.6463C9.7149 16.5526 9.5877 16.4999 9.45504 16.5Z" fill="url(#paint0_linear_1_285)"/>
<path d="M4.99992 15.5C5.13252 15.5001 5.25973 15.4474 5.35353 15.3536C5.44728 15.2599 5.49996 15.1327 5.49996 15V14C5.49996 13.7238 5.27607 13.5 4.99998 13.5C4.72389 13.5 4.5 13.7238 4.5 14V15.0001C4.49994 15.1327 4.55262 15.2599 4.64643 15.3537C4.74012 15.4474 4.86732 15.5001 4.99992 15.5Z" fill="url(#paint1_linear_1_285)"/>
<path d="M8.99992 15.5C9.13252 15.5001 9.25973 15.4474 9.35354 15.3536C9.44729 15.2599 9.49996 15.1327 9.49996 15V14C9.49996 13.7238 9.27607 13.5 8.99998 13.5C8.72383 13.5 8.5 13.7238 8.5 14V15.0001C8.49994 15.1327 8.55262 15.2599 8.64643 15.3537C8.74012 15.4474 8.86733 15.5001 8.99992 15.5Z" fill="url(#paint2_linear_1_285)"/>
<path d="M10.5 19.4999C11.328 19.499 11.9991 18.8279 12 17.9999V17.9494C13.164 17.7118 14 16.6879 14 15.4999C14 14.312 13.164 13.2881 12 13.0505V13C11.9991 12.1719 11.328 11.5009 10.5 11.5H7.99992L8.80008 10.8999C8.90613 10.8204 8.97627 10.702 8.99508 10.5707C9.01383 10.4395 8.97973 10.3062 8.90022 10.2001L8.24789 9.33014C8.68459 8.70219 8.60227 7.85041 8.05348 7.31767C7.50469 6.78494 6.65086 6.72799 6.03615 7.18308C5.42145 7.63818 5.22674 8.4715 5.57613 9.15189C5.92553 9.83228 6.71619 10.1596 7.44422 9.92521L7.80018 10.3999L6.33352 11.5H3.49998C2.67193 11.5009 2.00086 12.1719 1.99998 13V13.0505C0.836016 13.288 0 14.312 0 15.4999C0 16.6879 0.836016 17.7117 1.99998 17.9493V17.9998C2.00086 18.8279 2.67193 19.499 3.49998 19.4998H4.99998V21.4998H1.99998C0.895898 21.5011 0.00117188 22.3958 0 23.4999V28.4999C0.000644531 29.0519 0.447949 29.4993 1.00002 29.4999H2.13914C2.31639 29.8082 2.64439 29.9987 3 29.9999H11C11.552 29.9993 11.9994 29.552 12 28.9999H13C13.552 28.9992 13.9994 28.5519 14 27.9999V23.4999C13.9989 22.3958 13.1041 21.5011 12.0001 21.4999H9.00006V19.4999H10.5ZM12 14.0854C12.5993 14.2974 13 14.8642 13 15.4999C13 16.1357 12.5994 16.7024 12 16.9145V14.0854ZM7.00002 8.9999C6.72387 8.9999 6.50004 8.77601 6.50004 8.49992C6.50004 8.22383 6.72387 7.99994 7.00002 7.99994C7.27617 7.99994 7.5 8.22377 7.5 8.49992C7.49971 8.77596 7.27606 8.99961 7.00002 8.9999ZM1.99998 16.9145C1.40068 16.7024 1.00002 16.1356 1.00002 15.4999C1.00002 14.8641 1.40062 14.2974 1.99998 14.0853V16.9145ZM1.99998 28.4999H1.00002V23.4999C1.00066 22.9479 1.44803 22.5005 2.00004 22.4999L1.99998 28.4999ZM12 22.4999C12.552 22.5005 12.9994 22.9479 13 23.4999V27.9999H12V22.4999ZM9 28.9999H4.99998V24.4999H9V28.9999ZM11 22.4999L11.0006 28.4966L11 28.4999L11.0006 28.5032L11.0007 28.9999H9.99996V24.4999C9.99932 23.9479 9.55195 23.5005 8.99994 23.4999H4.99998C4.44797 23.5005 4.00061 23.9478 3.99996 24.4999V28.9999H3V22.4999H11ZM6 21.4999V19.4999H7.99998V21.4999H6ZM3.49998 18.4999C3.22395 18.4996 3.00023 18.2759 3 17.9999V12.9999C3.00029 12.7239 3.22395 12.5002 3.49998 12.4999H10.5C10.776 12.5002 10.9997 12.7239 11 12.9999V17.9999C10.9997 18.2759 10.776 18.4996 10.5 18.4999H3.49998Z" fill="url(#paint3_linear_1_285)"/>
<path d="M20.7747 3.00589C19.0045 2.93053 17.2804 3.58122 16.0015 4.80723C14.7225 6.03325 13.9996 7.72831 14.0001 9.50001C13.9916 11.5535 14.9608 13.4884 16.6104 14.7115C17.1576 15.0999 17.4878 15.7251 17.5 16.396V17.0922C17.0271 17.2558 16.6684 17.6465 16.5455 18.1316C16.4227 18.6167 16.5522 19.131 16.8902 19.5C16.4906 19.938 16.388 20.5708 16.6285 21.1126C16.869 21.6544 17.4073 22.0026 18.0001 22H18.0506C18.2882 23.164 19.312 24 20.5 24C21.688 24 22.7119 23.164 22.9495 22H23C23.5928 22.0026 24.131 21.6544 24.3716 21.1126C24.6121 20.5708 24.5094 19.938 24.1099 19.5C24.4478 19.131 24.5774 18.6167 24.4545 18.1316C24.3317 17.6465 23.9729 17.2558 23.5 17.0922V16.3936C23.5072 15.7304 23.8309 15.1106 24.3709 14.7256C26.5834 13.0849 27.5222 10.2282 26.7142 7.59489C25.9062 4.96169 23.5266 3.12319 20.7747 3.00589ZM20.5 23C19.8665 22.9981 19.3027 22.5976 19.0922 22H21.9079C21.6974 22.5976 21.1336 22.9981 20.5 23ZM23 21H18C17.7239 21 17.5 20.7762 17.5 20.5C17.5 20.2239 17.7239 20.0001 18 20.0001H23C23.2761 20.0001 23.5 20.2239 23.5 20.5C23.5 20.7762 23.2761 21 23 21ZM23 19H18C17.7239 19 17.5 18.7762 17.5 18.5001C17.5 18.2239 17.7239 18.0001 18 18.0001H23C23.2761 18.0001 23.5 18.2239 23.5 18.5001C23.5 18.7762 23.2761 19 23 19ZM23.7744 13.9229C22.9793 14.4955 22.5056 15.4137 22.5 16.3936V17.0001H18.5V16.3961C18.4892 15.4097 18.0103 14.4871 17.2097 13.9107C15.2753 12.4673 14.5076 9.93155 15.3166 7.65753C16.1255 5.3835 18.3222 3.90237 20.7336 4.00491C23.0622 4.10493 25.0752 5.66112 25.7584 7.8895C26.4416 10.1178 25.6468 12.5349 23.7744 13.9229Z" fill="url(#paint4_linear_1_285)"/>
<path d="M20.5 1.99998C20.7761 1.99998 21 1.77609 21 1.5V0.49998C21 0.223828 20.7761 0 20.5 0C20.2238 0 20 0.223828 20 0.49998V1.5C19.9999 1.77615 20.2238 1.99998 20.5 1.99998Z" fill="url(#paint5_linear_1_285)"/>
<path d="M26.51 2.78266L25.8027 3.48971C25.6764 3.61603 25.6271 3.80008 25.6733 3.97264C25.7195 4.14514 25.8543 4.2799 26.0268 4.32613C26.1993 4.37236 26.3834 4.32303 26.5097 4.19676L27.217 3.48971C27.4123 3.29447 27.4123 2.97795 27.217 2.78266C27.0217 2.58742 26.7052 2.58742 26.51 2.78266Z" fill="url(#paint6_linear_1_285)"/>
<path d="M14.4904 4.19676C14.6857 4.39199 15.0022 4.39199 15.1975 4.19676C15.3927 4.00152 15.3927 3.685 15.1975 3.48971L14.4902 2.78266C14.295 2.58742 13.9784 2.58742 13.7831 2.78266C13.5879 2.97789 13.5879 3.29441 13.7831 3.48971L14.4904 4.19676Z" fill="url(#paint7_linear_1_285)"/>
<path d="M29.5 9H28.5C28.2238 9 28 9.22383 28 9.49998C28 9.77613 28.2238 9.99996 28.5 9.99996H29.5C29.7762 9.99996 30 9.77613 30 9.49998C30 9.22383 29.7762 9 29.5 9Z" fill="url(#paint8_linear_1_285)"/>
<path d="M11.5 9.99996H12.5C12.7762 9.99996 13 9.77613 13 9.49998C13 9.22383 12.7761 9 12.5 9H11.5C11.2238 9 11 9.22383 11 9.49998C11 9.77613 11.2238 9.99996 11.5 9.99996Z" fill="url(#paint9_linear_1_285)"/>
<path d="M20.5003 5C18.8944 5.00422 17.4113 5.86039 16.6046 7.249C16.4661 7.48801 16.5476 7.79404 16.7865 7.93262C17.0254 8.07102 17.3312 7.98975 17.4699 7.75098C18.0971 6.67022 19.2508 6.00354 20.5004 5.99996C20.7766 5.99996 21.0004 5.77607 21.0004 5.49998C21.0003 5.22389 20.7765 5 20.5003 5Z" fill="url(#paint10_linear_1_285)"/>
<path d="M17 9.49998C17 9.22383 16.7761 9 16.5 9C16.2238 9 16 9.22383 16 9.49998C16 9.68783 16.0117 9.87557 16.0349 10.062C16.0662 10.3119 16.2784 10.4996 16.5303 10.4999C16.5513 10.4998 16.5722 10.4985 16.593 10.496C16.867 10.4617 17.0613 10.2119 17.0271 9.93791C17.009 9.79271 17 9.64641 17 9.49998Z" fill="url(#paint11_linear_1_285)"/>
<defs>
<linearGradient id="paint0_linear_1_285" x1="4.0459" y1="17" x2="9.95508" y2="17" gradientUnits="userSpaceOnUse">
<stop stop-color="#926EFB"/>
<stop offset="1" stop-color="#465BD7"/>
<stop offset="1" stop-color="#4A56AB"/>
</linearGradient>
<linearGradient id="paint1_linear_1_285" x1="4.5" y1="14.5" x2="5.49996" y2="14.5" gradientUnits="userSpaceOnUse">
<stop stop-color="#926EFB"/>
<stop offset="1" stop-color="#465BD7"/>
<stop offset="1" stop-color="#4A56AB"/>
</linearGradient>
<linearGradient id="paint2_linear_1_285" x1="8.5" y1="14.5" x2="9.49996" y2="14.5" gradientUnits="userSpaceOnUse">
<stop stop-color="#926EFB"/>
<stop offset="1" stop-color="#465BD7"/>
<stop offset="1" stop-color="#4A56AB"/>
</linearGradient>
<linearGradient id="paint3_linear_1_285" x1="2.2247e-07" y1="18.4382" x2="14" y2="18.4382" gradientUnits="userSpaceOnUse">
<stop stop-color="#926EFB"/>
<stop offset="1" stop-color="#465BD7"/>
<stop offset="1" stop-color="#4A56AB"/>
</linearGradient>
<linearGradient id="paint4_linear_1_285" x1="14" y1="13.5" x2="27.0007" y2="13.5" gradientUnits="userSpaceOnUse">
<stop stop-color="#926EFB"/>
<stop offset="1" stop-color="#465BD7"/>
<stop offset="1" stop-color="#4A56AB"/>
</linearGradient>
<linearGradient id="paint5_linear_1_285" x1="20" y1="0.999989" x2="21" y2="0.999989" gradientUnits="userSpaceOnUse">
<stop stop-color="#926EFB"/>
<stop offset="1" stop-color="#465BD7"/>
<stop offset="1" stop-color="#4A56AB"/>
</linearGradient>
<linearGradient id="paint6_linear_1_285" x1="25.6563" y1="3.4897" x2="27.3634" y2="3.4897" gradientUnits="userSpaceOnUse">
<stop stop-color="#926EFB"/>
<stop offset="1" stop-color="#465BD7"/>
<stop offset="1" stop-color="#4A56AB"/>
</linearGradient>
<linearGradient id="paint7_linear_1_285" x1="13.6367" y1="3.48971" x2="15.3439" y2="3.48971" gradientUnits="userSpaceOnUse">
<stop stop-color="#926EFB"/>
<stop offset="1" stop-color="#465BD7"/>
<stop offset="1" stop-color="#4A56AB"/>
</linearGradient>
<linearGradient id="paint8_linear_1_285" x1="28" y1="9.49998" x2="30" y2="9.49998" gradientUnits="userSpaceOnUse">
<stop stop-color="#926EFB"/>
<stop offset="1" stop-color="#465BD7"/>
<stop offset="1" stop-color="#4A56AB"/>
</linearGradient>
<linearGradient id="paint9_linear_1_285" x1="11" y1="9.49998" x2="13" y2="9.49998" gradientUnits="userSpaceOnUse">
<stop stop-color="#926EFB"/>
<stop offset="1" stop-color="#465BD7"/>
<stop offset="1" stop-color="#4A56AB"/>
</linearGradient>
<linearGradient id="paint10_linear_1_285" x1="16.5371" y1="6.50005" x2="21.0004" y2="6.50005" gradientUnits="userSpaceOnUse">
<stop stop-color="#926EFB"/>
<stop offset="1" stop-color="#465BD7"/>
<stop offset="1" stop-color="#4A56AB"/>
</linearGradient>
<linearGradient id="paint11_linear_1_285" x1="16" y1="9.74997" x2="17.031" y2="9.74997" gradientUnits="userSpaceOnUse">
<stop stop-color="#926EFB"/>
<stop offset="1" stop-color="#465BD7"/>
<stop offset="1" stop-color="#4A56AB"/>
</linearGradient>
</defs>
</svg>
